<svg viewBox="0 0 1000 1000" xmlns="http://www.w3.org/2000/svg"><path d="m601.42 649.79-121.31 38.68a11.84 11.84 0 0 1 -14.9-7.37 11.82 11.82 0 0 1 6.15-14.57l113.22-50.81" fill="#fc9797"/><path d="m601.42 649.79-121.31 38.68a11.84 11.84 0 0 1 -14.9-7.37 11.82 11.82 0 0 1 6.15-14.57l113.22-50.81" fill="none" stroke="#1d2b47" stroke-linecap="round" stroke-miterlimit="10" stroke-width="1.66"/><path d="m592.76 631.9-123.08 40.27a11.82 11.82 0 0 1 -14.9-7.36 11.83 11.83 0 0 1 6.15-14.58l97.62-45.88" fill="#fc9797"/><path d="m592.76 631.9-30.6 10-92.48 30.26a11.82 11.82 0 0 1 -14.9-7.36 11.83 11.83 0 0 1 6.15-14.58l97.62-45.88" fill="none" stroke="#1d2b47" stroke-linecap="round" stroke-miterlimit="10" stroke-width="1.66"/><path d="m558.35 637.46-101.18 45.12a11.84 11.84 0 0 1 -15.56-5.84 11.83 11.83 0 0 1 4.66-15.12l101.5-60z" fill="#fc9797"/><path d="m575.37 619.75c23.85 18.1 14.76 42.39-1.29 52.51a29 29 0 0 1 -30.81.07l-13.09-8.18-15.29 29.73 83.84 64.42 105-94.87-79.13-87.62a45.24 45.24 0 0 0 -56.6-8.61l-29.77 18" fill="#fc9797"/><path d="m543.36 644.22-86.19 38.36a11.84 11.84 0 0 1 -15.56-5.84 11.83 11.83 0 0 1 4.66-15.12l98-57.89" fill="none" stroke="#1d2b47" stroke-linecap="round" stroke-miterlimit="10" stroke-width="1.66"/><path d="m580.58 619.34-110.5 8a11.84 11.84 0 0 1 -12.64-10.79 11.84 11.84 0 0 1 9.56-12.64l120.56-24.07z" fill="#fc9797"/><path d="m575.37 619.75c23.85 18.1 14.76 42.39-1.29 52.51a29 29 0 0 1 -30.81.07l-13.09-8.18-15.29 29.73 83.84 64.42 105-94.87-79.13-87.62a45.24 45.24 0 0 0 -56.6-8.61l-27.61 15.8" fill="none" stroke="#1d2b47" stroke-linecap="round" stroke-miterlimit="10" stroke-width="1.66"/><path d="m575.37 619.75-105.29 7.58a11.84 11.84 0 0 1 -12.64-10.79 11.84 11.84 0 0 1 9.56-12.63l109.42-24a36.91 36.91 0 0 1 35.31 11.31l21.87 24.21" fill="none" stroke="#1d2b47" stroke-linecap="round" stroke-miterlimit="10" stroke-width="1.66"/><path d="m699.83 658.88 82.03 70.78-112.71 119.76-77.16-97.07 38.7-60.98z" fill="#fc9797"/><path d="m699.83 658.88 82.03 70.78-112.71 119.76-77.16-97.07 38.7-60.98z" fill="#fc9797"/><path d="m781.86 729.66-47-40.55-104.25 111.83 31.52 39.99" fill="#fff" stroke="#1d2b47" stroke-linecap="round" stroke-miterlimit="10" stroke-width="1.66"/><path d="m781.86 729.66-112.71 119.76-7-8.8 113.54-116.28z" fill="#fff"/><g stroke="#1d2b47" stroke-miterlimit="10" stroke-width="1.66"><path d="m583.6 803.11 26.87-27.51 51.68 65-19.6 20.06a41.2 41.2 0 0 1 -58.26.69 41.2 41.2 0 0 1 -.69-58.24z" fill="#1d2b47"/><g stroke-linecap="round"><g fill="none"><path d="m699.83 658.88 13.35 11.53 62.51 53.93-113.54 116.28-51.68-65.02-18.48-23.25"/><path d="m584.31 861.71 121.87 113.29"/><path d="m775.66 724.23 95.94 79.68"/></g><circle cx="742.16" cy="725.26" fill="#1d2b47" r="10.12"/></g><path d="m622.07 359.2a144.11 144.11 0 1 0 -241.36 106.35 89 89 0 0 1 28.64 65.7v67.37h137.22v-67.92a89.2 89.2 0 0 1 29-65.51 143.72 143.72 0 0 0 46.5-105.99z" fill="#fcb332"/><path d="m466.23 557.28v-235.87a9.53 9.53 0 0 0 -9.76-9.28h-2.19a9.53 9.53 0 0 0 -9.76 9.28 9.53 9.53 0 0 0 9.76 9.28h47.08a9.53 9.53 0 0 0 9.76-9.28 9.53 9.53 0 0 0 -9.76-9.28h-4.6a9.53 9.53 0 0 0 -9.76 9.28v235.87" fill="none"/><g fill="#fff"><path d="m547.58 609.53h-.87v-11.48h.87a10.63 10.63 0 0 0 0-21.25h-.87v-19.52h-137.21v19.52h-2.59a10.63 10.63 0 0 0 0 21.25h2.59v11.48h-2.59a10.62 10.62 0 0 0 0 21.24h2.76a68.6 68.6 0 0 0 68.44 63.73 68.6 68.6 0 0 0 68.43-63.73h1a10.62 10.62 0 0 0 0-21.24z"/><path d="m546.71 576.8h-99.32"/><path d="m409.5 598.62h93.01"/><path d="m546.71 609.53h-72.91"/><path d="m409.5 630.77h90.14"/><path d="m488.15 685.89v12.34a14.06 14.06 0 0 1 -14.06 14.07 14.07 14.07 0 0 1 -14.09-14.07v-15.79"/><path d="m365.54 390.62a12.5 12.5 0 0 1 -12.4-11.12 183.2 183.2 0 0 1 -1.14-25.61 12.49 12.49 0 1 1 25 .72 159.51 159.51 0 0 0 1 22.13 12.5 12.5 0 0 1 -11 13.8 13.1 13.1 0 0 1 -1.46.08z"/><path d="m369.24 334.33a12.49 12.49 0 0 1 -11.95-16.2c12.39-44.46 32.15-60.22 55.1-72.17a12.68 12.68 0 0 1 16.68 4.55 12.67 12.67 0 0 1 -4.76 17.81l-2 1.06c-1.22.62-29.93 15.53-41.07 55.79a12.5 12.5 0 0 1 -12 9.16z"/></g></g><path d="m671.89 692.21-97.81-20a29 29 0 0 1 -30.81.07l-13.08-8.18-27.68-17.3a21.53 21.53 0 0 0 -29.34 6.26l-3.86 5.75 105.47 81.19 23.92 18.38z" fill="#fc9797"/><g stroke="#1d2b47" stroke-linecap="round" stroke-miterlimit="10" stroke-width="1.66"><path d="m574.08 672.26a29 29 0 0 1 -30.81.07l-13.08-8.18-27.68-17.35a21.53 21.53 0 0 0 -29.34 6.26l-3.86 5.75 105.47 81.19 23.92 18.38" fill="none"/><path d="m473.9 712.38a74.45 74.45 0 0 1 -74.45 74.45h-37.59a74.45 74.45 0 0 0 -74.45 74.45v96.86" fill="none"/><g fill="#cfedff"><rect height="146.73" rx="12.65" width="25.3" x="460.89" y="25"/><rect height="146.73" rx="12.65" transform="matrix(0 -1 1 0 365.77 1098.82)" width="25.3" x="719.65" y="293.16"/><rect height="146.73" rx="12.65" transform="matrix(0 -1 1 0 -164.76 568.28)" width="25.3" x="189.11" y="293.16"/><rect height="146.73" rx="12.65" transform="matrix(.70710678 -.70710678 .70710678 .70710678 -34.64 235.98)" width="25.3" x="254.89" y="86.44"/><rect height="146.73" rx="12.65" transform="matrix(-.70710678 -.70710678 .70710678 -.70710678 1026.06 744.61)" width="25.3" x="654.6" y="86.44"/><path d="m377.94 146.42 15.77 32.35"/><path d="m570.43 146.42-11.62 32.35"/><path d="m659.2 284.97 24.89-9.95"/><path d="m644.27 427.68 14.93 6.64"/><path d="m288.34 284.97-34.02-4.97"/><path d="m318.2 434.32-19.91 17.42"/></g></g></svg>