<svg viewBox="0 0 1000 1000" xmlns="http://www.w3.org/2000/svg"><g stroke="#1d2b47" stroke-miterlimit="10" stroke-width="1.54"><path d="m838.58 607.05v-285.43h-16.68v261.97" fill="none"/><path d="m748.99 618.61v-296.99h-16.68v261.97" fill="none"/><path d="m748.92 317.3h134.08a20.08 20.08 0 0 1 20.08 20.08v20.7a0 0 0 0 1 0 0h-174.23a0 0 0 0 1 0 0v-20.7a20.08 20.08 0 0 1 20.07-20.08z" fill="#1d2b47" transform="matrix(-1 0 0 -1 1631.92 675.38)"/><path d="m705 317.3h134.08a20.08 20.08 0 0 1 20.08 20.08v20.7a0 0 0 0 1 0 0h-174.24a0 0 0 0 1 0 0v-20.7a20.08 20.08 0 0 1 20.08-20.08z" fill="#fff" transform="matrix(-1 0 0 -1 1544.08 675.38)"/><path d="m628.7 241.92-6.7 14.35a4.94 4.94 0 0 0 3.27 6.88 4.94 4.94 0 0 0 5.73-2.85l7.61-17.76z" fill="#1d2b47"/><path d="m579.48 322.59-52.09 98.73a66.63 66.63 0 0 1 -79 32.43l-42.71-13.5 18.53-45.1 90.19-100.71z" fill="#a7d7fc"/><path d="m538.18 250.57a15.14 15.14 0 0 1 15.14 15.14v81.29a0 0 0 0 1 0 0h-30.32a0 0 0 0 1 0 0v-81.29a15.14 15.14 0 0 1 15.18-15.14z" fill="#1d2b47" transform="matrix(-.58254863 .81279585 -.81279585 -.58254863 1094.53 35.36)"/><rect fill="#1d2b47" height="19.15" rx="9.58" transform="matrix(-.88587992 .46391461 -.46391461 -.88587992 1241.27 168.02)" width="100.71" x="549.61" y="227.09"/><path d="m492.57 400.17 48.89-87.36a110.74 110.74 0 0 1 27.65-32.54l5.29-4.21a34.31 34.31 0 0 0 11.18-16 34.33 34.33 0 0 0 -2.67-27.7l-.34-.61a25.46 25.46 0 0 0 -17.29-12.48 25.49 25.49 0 0 0 -23.44 7.57l-18.66 19.91-93.47 124.17-46.92-83.92c-5.53-8.24-10.15-17.38-15.48-25.82a38.89 38.89 0 0 0 -39.78-17.42l-32 85.63 84.35 89.11a68.55 68.55 0 0 0 107.63-10.34z" fill="#cfedff"/><path d="m274.16 382.74 39.9 305.91 16.05 218.69 34.6 15.45 32.92-1.3s17.37-329.37-24.78-481.84c-63.61-51.07-98.69-56.91-98.69-56.91z" fill="#fff"/><path d="m273.88 670.09.28-287.35s36.2-13.95 99.82 37.12c31.51 125.43 28.55 296.43 26.68 405.75l-137.9 20.57z" fill="#fff"/><path d="m288.71 825.79 4.33-182.97.19-202.76" fill="#cfedff"/><path d="m311.57 824.13 4.33-182.97.19-202.76" fill="#cfedff"/><g fill="none"><path d="m362.37 446.84c19.39 95.16 16.63 305.58 15.31 379.57"/><path d="m340.22 449.15c19.29 95.38 16.49 305.24 15.22 379.11"/><path d="m317.13 435.31c22.24 88.5 19.25 314 17.92 391.1"/></g><path d="m282.45 826.42 31.59-.1v39.55l-31.22.09a19.78 19.78 0 0 1 -19.94-19.61 19.77 19.77 0 0 1 19.57-19.93z" fill="#1d2b47"/></g><path d="m215.67 594.81 27.33-251.23 86.26 83.94s13.54 160.16-41.29 256.21c-25.91 45.38-54.11 87.16-78.23 120.52l-109.13-49.08z" fill="#fff"/><g stroke="#1d2b47" stroke-miterlimit="10" stroke-width="1.54"><path d="m330.73 456.32c6.79 72.9-12.5 175.39-42.19 227.4-25.91 45.38-54.11 87.16-78.24 120.52l-124.24-61.86 114.3-137.78 5.29-61.48a310.72 310.72 0 0 1 26.84-102.25l97.34-13.36" fill="#fff"/><path d="m330.73 456.32c6.79 72.9-12.5 175.39-42.19 227.4l-17.37 29.39-2.81 44.39s58-76.91 67.31-176.38c8.9-95.48-4.94-124.8-4.94-124.8z" fill="#1d2b47"/><g fill="none"><path d="m115.72 739.29 92.88-111.91a23.18 23.18 0 0 0 5.26-12.83l2.77-32.25c2-22.72 17.52-107.09 27-127.84"/><path d="m132.4 753.5 92.88-111.91a23.18 23.18 0 0 0 5.26-12.83l2.78-32.25c2-22.72 20-119.45 29.44-140.19"/><path d="m314 456.32c6.18 46.95-9.85 157.05-40.45 218.15-18.82 37.63-63.87 97.14-79.37 118.53"/><path d="m297.11 456.32c.29 49.93-12.65 150.17-40.82 206.41-18.86 37.64-69.47 93.44-85 114.87"/></g><path d="m90.82 769.38a19.77 19.77 0 0 1 -5.14-27.48 19.77 19.77 0 0 1 27.48-5.14l23.28 16.88-22.37 32.6z" fill="#1d2b47"/><path d="m89.15 824.55 24.92-38.31 22.37-32.6 73.86 50.6c-8.45 11.69-18.82 24.49-26 33.91-21.69 28.42-33.9 43.36-33.9 43.36l-11.82 41.28z" fill="#fc9797"/><path d="m351.12 880.78 33.36 2.47 15.58-29.62c.22-8.72.43-18.09.6-28l-86.77.71-.05 39.55v15.15l.22-.24z" fill="#fc9797"/><path d="m350.71 972.59.27-18.34a3.28 3.28 0 0 1 5.85-2l6.89 8.72a47.52 47.52 0 0 0 31.28 12.19l79.07.83-.07-13.08c-.08-16.51-10.69-31.34-26.49-36.1l-1.25-.35-24.37-6.46a32.65 32.65 0 0 1 -22.77-32.26c.19-5.65.41-12.44.64-20.56.1-3.7.2-7.55.3-11.53h-31.79a17.15 17.15 0 0 0 -17.15 17.15v10h-37.12l-.22.24-.11 91.17z" fill="#fcb332"/><path d="m351 954.25a3.28 3.28 0 0 1 5.85-2l6.89 8.72a47.52 47.52 0 0 0 31.26 12.19l79.07.83-.07-13.08a38.41 38.41 0 0 0 -2.57-13.66h-157.69v24.94l37 .4z" fill="#1d2b47"/><g fill="none"><path d="m351.12 880.78s.61 45.72 73.52 50.66"/><g stroke-linecap="round"><path d="m411.19 900.06s-7.43-5.81-14.22 2.9"/><path d="m407.9 892.05s-7.43-5.81-14.23 2.9"/><path d="m404.6 884s-7.43-5.81-14.22 2.9"/><path d="m413.42 887.64s17.28-21.3 21.51-11.66-12 16.42-11.57 10.74 14.07-6.13 16.87 1.79-13.59 8.85-25.26 4.74"/><path d="m313.71 922.79h8a17 17 0 0 1 14.06 7.49l11.42 17"/><path d="m314.04 890.15h38.97"/></g></g><path d="m77.64 901.42 11-14.69a3.27 3.27 0 0 1 5.89 1.83l.47 11.11a47.47 47.47 0 0 0 18.17 28.22l63.48 47.11 7.64-10.63c9.62-13.4 9.74-31.64-.25-44.77-.26-.35-.53-.69-.8-1l-15.92-19.6a32.68 32.68 0 0 1 .51-39.49c3.48-4.46 7.64-9.83 12.6-16.27q3.39-4.39 7-9.15l-25.73-18.68a17.17 17.17 0 0 0 -24 3.81l-5.87 8.1-30-21.78-.32.07-53.59 73.75z" fill="#fcb332"/><path d="m88.63 886.73a3.27 3.27 0 0 1 5.89 1.83l.48 11.11a47.47 47.47 0 0 0 18.17 28.22l63.48 47.11 7.64-10.63a38.56 38.56 0 0 0 5.93-12.56l-127.63-92.62-14.67 20.17 29.72 22.06z" fill="#1d2b47"/><g fill="none"><path d="m131.89 827.35s-26.35 37.36 29.75 84.18"/><g stroke-linecap="round"><path d="m169.18 878.24s-2.59-9.07-13.21-6"/><path d="m171.22 869.82s-2.6-9.07-13.21-6"/><path d="m173.26 861.4s-2.6-9.07-13.21-6"/><path d="m178.28 869.49s26.5-7.09 24.26 3.2-19.33 6.26-15.67 1.9 15 3.29 12.6 11.35-16.2-.81-23.23-11"/><path d="m76.94 839.38 6.47 4.7a16.94 16.94 0 0 1 7 14.31l-.73 20.44"/><path d="m96.38 813.16 31.53 22.88"/></g></g><path d="m523.18 246.76 18.66-19.91a25.49 25.49 0 0 1 23.44-7.57 25.46 25.46 0 0 1 17.29 12.48l.34.61a34.33 34.33 0 0 1 2.67 27.7 34.31 34.31 0 0 1 -11.18 16l-5.29 4.21a110.74 110.74 0 0 0 -27.65 32.54l-6.37 11.37-42.77-36.42z" fill="#1d2b47"/><path d="m154 765.66s83.44-88.77 94.56-127.08 30.28-182.26 30.28-182.26" fill="none"/><rect fill="#cfedff" height="21.62" rx="6.6" transform="matrix(-1 0 0 -1 612.98 868.76)" width="157.55" x="227.71" y="423.57"/></g><path d="m233 425.42h143.31l-12.54-134.37a56.21 56.21 0 0 0 -56-51 56.2 56.2 0 0 0 -55.66 48.41z" fill="#cfedff"/><g stroke="#1d2b47" stroke-miterlimit="10" stroke-width="1.54"><path d="m307.8 240.07a56.2 56.2 0 0 0 -55.66 48.41l-26.32 98a55.15 55.15 0 0 0 -.32 27.37l2.83 11.6h148l-12.56-134.4" fill="#cfedff"/><g stroke-linecap="round"><path d="m345.35 250.29-1.84-20.87a7.34 7.34 0 0 0 -7.39-6.7l-39.45.44a7.34 7.34 0 0 0 -7.24 7.8l.9 14.33" fill="#cfedff"/><g fill="#1d2b47"><path d="m357.44 131.18 3.36 15.69c1.64 7.68-5.15 15.65-15.18 17.79l-15.08 3.23-6.78-17z"/><circle cx="352.63" cy="133.78" r="14.52"/></g></g></g><path d="m292.17 180.51 6.92 56.02 37.76 5.19-14.34-67.06" fill="#fc9797"/><path d="m336.85 241.72-14.34-67.06" fill="none" stroke="#1d2b47" stroke-linecap="round" stroke-miterlimit="10" stroke-width="1.54"/><path d="m292.17 180.51 6.92 56.02" fill="none" stroke="#1d2b47" stroke-linecap="round" stroke-miterlimit="10" stroke-width="1.54"/><path d="m327.37 197.37s-8.88 2.79-16.43 0c4 9.88 20.42 18.71 20.42 18.71z" fill="#1d2b47"/><circle cx="316.1" cy="175.71" fill="#fc9797" r="24.41"/><g stroke="#1d2b47" stroke-miterlimit="10" stroke-width="1.54"><path d="m311.43 199.67a24.41 24.41 0 1 0 -.43-47.82" fill="none" stroke-linecap="round"/><path d="m287.35 138.58 11.14-2.38a12.35 12.35 0 0 1 22-10 16.37 16.37 0 0 1 32.32-2c0 .1 0 .2.06.3a27.19 27.19 0 0 1 -20.87 32.34l-20 4.26c4.65 12.91-1.09 18.56-1.09 18.56s-2.32-10.88-8.15-11.53-7 11.61 1.51 13c2.88 16.44-9.81 19.15-9.81 19.15-11.75-5.28-19.46-14.72-24.59-24.38a25.85 25.85 0 0 1 17.48-37.32z" fill="#1d2b47" stroke-linecap="round"/><path d="m306.18 269.73 91.24 113 63.29-84.08 80.87 39.64-54.73 92.22-5.09 8c-29.77 48.67-103.29 45-140.36 1.71l-84.65-82.79" fill="#cfedff"/><path d="m538 316.84a15.13 15.13 0 0 1 3.52 21.16 15.14 15.14 0 0 1 -21.12 3.48l-10.61-7.6 16.21-25.66z" fill="#1d2b47"/><path d="m478.93 274.48 12-15.9 8.22-19.14a36.64 36.64 0 0 1 29.87-22 36.64 36.64 0 0 1 32.52 13.66l11.11 23.23a11.85 11.85 0 0 1 -13.65 16.61l-16.79-6.78-3.42 20a26.74 26.74 0 0 1 -3.79 9.84l-9 14.19-16.22 25.62-49.08-35.17z" fill="#fc9797"/><circle cx="535.09" cy="257.06" fill="#fff" r="22.55"/></g><path d="m337.7 226.78s-26.58 6-42.25 1c1.14 19 4 26.52 20.35 29.39s25.39.83 25.39.83z" fill="#cfedff"/><g stroke="#1d2b47" stroke-miterlimit="10" stroke-width="1.54"><path d="m337.7 226.78s-26.58 6-42.25 1" fill="none" stroke-linecap="round"/><path d="m535.09 242.54a14.58 14.58 0 0 1 5.22 1l65.39-34.24a9.58 9.58 0 1 1 8.89 17l-65.38 34.23a14.52 14.52 0 1 1 -14.12-17.93z" fill="#fff"/><path d="m645.38 249.34a51.91 51.91 0 0 1 -51.9-52.3c.21-28.61 23.93-51.5 52.55-51.5h9.63" fill="#fcb332"/><circle cx="535.09" cy="257.06" fill="#1d2b47" r="4.63"/><rect fill="#1d2b47" height="283.59" rx="18.61" transform="matrix(-1 0 0 -1 1652.9 381.9)" width="223.46" x="714.72" y="49.15"/><rect fill="#fcb332" height="283.59" rx="18.03" transform="matrix(-1 0 0 -1 1495.73 381.9)" width="209.79" x="642.97" y="49.15"/><rect fill="#fcb332" height="223.62" rx="14.22" transform="matrix(-1 0 0 -1 1495.73 381.9)" width="165.43" x="665.15" y="79.14"/><rect fill="#1d2b47" height="22.24" rx="6.49" transform="matrix(-1 0 0 -1 1659.19 245.35)" width="12.97" x="823.11" y="111.56"/><rect fill="#1d2b47" height="22.24" rx="6.49" transform="matrix(-1 0 0 -1 1659.19 550.57)" width="12.97" x="823.11" y="264.16"/><g fill="#fff"><path d="m760.06 111.59-15-1a4.41 4.41 0 0 0 -4.4 2.76l-24.76 62.06a5.64 5.64 0 0 0 6.19 7.64l17.29-3-12.68 43.95a1.4 1.4 0 0 0 2.49 1.19l42.28-60.91a5.63 5.63 0 0 0 -5-8.83l-18.93 1.27 16.28-39a4.4 4.4 0 0 0 -3.76-6.13z"/><path d="m793.66 249.34h-98.23"/><path d="m793.66 261.69h-98.23"/><path d="m793.66 274.05h-98.23"/></g><g fill="none"><rect height="30.89" rx="4.32" transform="matrix(-1 0 0 -1 1361.2 350.39)" width="8.65" x="676.27" y="159.75"/><path d="m938.1 27.69-4.25 9.06"/><path d="m952.08 39.38-9.09 4.18"/><path d="m919.6 25 1.93 9.82"/><path d="m579.54 187.86s8.48-39.3 41.61-48.55"/></g></g></svg>