<svg xmlns="http://www.w3.org/2000/svg" width="251" height="50" viewBox="0 0 251 50"><g fill="none" fill-rule="evenodd"><circle cx="131" cy="25" r="25" fill="#1D2B47"/><g fill="#CFEDFF" fill-rule="nonzero" transform="translate(113 8)"><path d="M17.5,35 C7.84482759,35 0,27.1551724 0,17.5 C0,7.84482759 7.84482759,0 17.5,0 C27.1551724,0 35,7.84482759 35,17.5 C35,27.1551724 27.1551724,35 17.5,35 Z M17.5,1.50862069 C8.59913793,1.50862069 1.50862069,8.59913793 1.50862069,17.5 C1.50862069,26.4008621 8.75,33.4913793 17.5,33.4913793 C26.4008621,33.4913793 33.4913793,26.25 33.4913793,17.5 C33.4913793,8.59913793 26.4008621,1.50862069 17.5,1.50862069 Z"/><path d="M17.1989247,28.2258065 C17.1989247,28.2258065 17.0483871,28.2258065 17.0483871,28.2258065 C16.7473118,28.0733321 16.4462366,27.7683833 16.4462366,27.4634345 L16.7473118,20.1446636 L10.8763441,20.1446636 C10.5752688,20.1446636 10.4247312,19.9921892 10.2741935,19.8397148 C10.1236559,19.5347661 10.1236559,19.3822917 10.2741935,19.0773429 L17.0483871,6.57444265 C17.1989247,6.26949386 17.6505376,6.11701947 17.9516129,6.26949386 C18.2526882,6.42196826 18.5537634,6.72691704 18.5537634,7.03186583 L18.2526882,14.3506367 L24.1236559,14.3506367 C24.4247312,14.3506367 24.5752688,14.5031111 24.7258065,14.6555855 C24.8763441,14.9605343 24.8763441,15.1130087 24.7258065,15.4179574 L17.9516129,27.9208577 C17.8010753,28.0733321 17.5,28.2258065 17.1989247,28.2258065 Z M12.2311828,18.6199197 L17.6505376,18.6199197 C17.8010753,18.6199197 18.1021505,18.7723941 18.2526882,18.9248685 C18.4032258,19.0773429 18.4032258,19.2298173 18.4032258,19.5347661 L18.1021505,24.4139466 L22.7688172,16.027855 L17.3494624,16.027855 C17.1989247,16.027855 16.8978495,15.8753806 16.7473118,15.7229062 C16.5967742,15.5704318 16.5967742,15.4179574 16.5967742,15.1130087 L16.8978495,10.2338281 L12.2311828,18.6199197 Z"/></g><line x1="171.5" x2="187.5" y1="24.5" y2="24.5" stroke="#FCB332" stroke-linecap="square" stroke-width="2"/><text fill="#1D2B47" font-family="Montserrat-Light, Montserrat" font-size="16" font-weight="300">
                        <tspan x="203" y="30">Meter</tspan>
                    </text><text fill="#1D2B47" font-family="Montserrat-Light, Montserrat" font-size="16" font-weight="300">
                        <tspan x="0" y="30">Energy</tspan>
                    </text><line x1="72.5" x2="90.5" y1="25.5" y2="25.5" stroke="#FCB332" stroke-linecap="square" stroke-width="2"/></g></svg>