<svg viewBox="0 0 1000 1000" xmlns="http://www.w3.org/2000/svg"><g stroke="#1d2b47" stroke-miterlimit="10" stroke-width="1.48"><path d="m202.64 335.55 88.42-26.21 35.37 83.07 124.39-94.77 20.73 106-97.14 64c-64 39.68-125 17.18-142.74-37.31l-35.54-104.26" fill="#cfedff"/><path d="m205.88 309.31a15.1 15.1 0 0 0 -8.77 19.47 15.11 15.11 0 0 0 19.48 8.77l22-8.33-8.65-29z" fill="#1d2b47"/><path d="m279.22 281.52-11.15-26.2-45.8 19.17 7.66 25.7 8.65 29.03 52.48-19.88z" fill="#fc9797"/><path d="m574 266.84.69 1.75a70.38 70.38 0 0 1 -7.1 65l-1.29 1.93-57.46-2.37 14.81-63.38z" fill="#cfedff" stroke-linecap="round"/><path d="m486.95 253.81h74a13 13 0 0 1 13 13 13 13 0 0 1 -13 13h-74a0 0 0 0 1 0 0v-26a0 0 0 0 1 0 0z" fill="#a7d7fc"/><path d="m481.38 698 31.73-294s-33.5 6.34-93.38 56.64c-55.39 119.58-60.14 319.19-55.39 419.28l120.72-24.92z" fill="#fff"/><path d="m383.11 859.29a19.54 19.54 0 0 0 -18.71 20.35 19.53 19.53 0 0 0 20.35 18.7l19.82-.83c-.62-10.39-1.35-23.62-2.08-39z" fill="#1d2b47"/><path d="m487.75 969.73-1.75-75.64-.94-39.09-82.57 3.47c.73 15.42 1.46 28.65 2.08 39 .11 1.76.21 3.44.31 5a24.72 24.72 0 0 1 -18.55 25.53l-23.92 6.12a40 40 0 0 0 -27 23.46l-7.22 17.42z" fill="#fc9797"/><path d="m452.77 509.94c-.72 7.54-1.36 15.55-1.86 23.92-2.58 43.33-1.31 96.31 12.35 143.45 18.36 63.37 65.15 138 93 174.13l91.28-81.25-80.09-125.81 3.29-69.71a306.65 306.65 0 0 0 -15.09-110.59l-93.58-17.77" fill="#fff"/><path d="m452.77 509.94c-.72 7.54-1.36 15.55-1.86 23.92-2.58 43.33-1.31 96.31 12.35 143.45a375.8 375.8 0 0 0 18.36 48.86l1.28 36.92s-47-76.1-44.52-158.64 14.39-94.51 14.39-94.51z" fill="#1d2b47"/><path d="m562.3 824.27a19.55 19.55 0 0 0 -6 27 19.55 19.55 0 0 0 27 6l15-9.52c-6.49-8.87-14.19-19.62-22.68-31.91z" fill="#1d2b47"/><path d="m696 869.8-13-40.87-35.47-58.74-72 45.66c8.49 12.29 16.19 23 22.68 31.91 13 17.77 21.19 28 21.19 28l-18.17 70.43z" fill="#fc9797"/><path d="m434.15 891.09a14 14 0 0 0 -13.74-11.22h-16.84c.35 6.54.69 12.44 1 17.64v.45a29.43 29.43 0 0 1 -22.94 30.48l-18.37 4.12a44.31 44.31 0 0 0 -34 36l-1.07 6.44 159.56-5.27-1.43-60.84h-30.32a22.26 22.26 0 0 1 -21.85-17.8z" fill="#fcb332"/><path d="m372.63 930.46-9.34 2.1a44.33 44.33 0 0 0 -34 36l-1.1 6.44 159.56-5.27-.8-26.48-19.59.43a16.76 16.76 0 0 0 -9.17 4.42l-3.74 3.53a16.82 16.82 0 0 1 -11 4.57l-61.11 2.11a9.41 9.41 0 0 1 -9.74-9.4z" fill="#fff"/><g fill="none"><path d="m434.23 891.13s20.14 48.73-61.6 48"/><g stroke-linecap="round"><path d="m383.79 922.76s8.36-3.44 12.37 6.36"/><path d="m388.9 916.22s8.37-3.44 12.38 6.36"/><path d="m394 909.69s8.36-3.44 12.38 6.35"/><path d="m385 910.72s-10.43-24.13-16.83-16.34 6.79 18.26 7.89 12.92-11.39-9.31-16-2.72 10.25 11.69 22.08 10.92"/></g><path d="m429.78 956.68 22.22-20.57a29.15 29.15 0 0 1 18.08-7.69l16.64-1"/></g><path d="m629.29 841.15a14 14 0 0 0 -17.59-2.32l-14.33 8.85c3.73 5.38 7.13 10.22 10.12 14.48l.26.37a29.44 29.44 0 0 1 -3.49 38l-13.46 13.15a44.31 44.31 0 0 0 -10 48.53l2.47 6 133-88.35-33.2-51-25.83 16a22.23 22.23 0 0 1 -27.95-3.71z" fill="#fcb332"/><path d="m597.65 907-6.85 6.69a44.32 44.32 0 0 0 -10 48.53l2.47 6 133-88.35-14.61-22.11-16.44 10.67a16.82 16.82 0 0 0 -5.48 8.57l-1.32 5a16.82 16.82 0 0 1 -6.93 9.66l-50.88 33.92a9.41 9.41 0 0 1 -13.22-2.88z" fill="#fff"/><g fill="none"><path d="m629.37 841.14s42.75 30.86-27.14 73.26"/><g stroke-linecap="round"><path d="m603.08 894.57s5.31-7.32 13.88-1.1"/><path d="m604 886.32s5.31-7.32 13.87-1.1"/><path d="m604.92 878.07s5.3-7.33 13.87-1.1"/><path d="m597.74 883.71s-21.56-15-22.9-5.05 15.37 12 13.5 6.84-14.58-1.93-15.07 6.11 14.86 4.56 24.53-2.31"/></g><path d="m660 899.25 8.12-29.2a29.2 29.2 0 0 1 11.34-16l13.64-9.58"/></g><path d="m535.59 822.48-5.74-9a20.73 20.73 0 0 1 7-29l87.2-51.11" fill="#fff"/><g fill="none"><path d="m363.14 837.38a20.74 20.74 0 0 1 20.17-22l101-2.59"/><path d="m495 501.53s14.21 14.81 33.76 11.85"/><path d="m511.77 514.06s-35.52 134.65 61.49 249"/><path d="m450.82 534s-30.8 138.6-27.23 278.8"/></g></g><path d="m555.36 464.08h-137.42l10.21-109.36 1.85-19.46a53.87 53.87 0 0 1 53.65-48.87 53.89 53.89 0 0 1 53.35 46.41z" fill="#cfedff"/><g stroke="#1d2b47" stroke-miterlimit="10" stroke-width="1.48"><path d="m483.62 286.39a53.89 53.89 0 0 1 53.38 46.41l18.38 131.28h-137.44l10.21-109.36" fill="none"/><path d="m450.82 321.33-7-19.49a72.79 72.79 0 0 1 -4.27-24.54 21.71 21.71 0 0 1 21.71-21.71h26.86" fill="#a7d7fc"/><path d="m430.5 191.7s-12.5 34.15 20.23 43.94c13.75-2.34 1-34.93 1-34.93z" fill="#1d2b47"/></g><path d="m494.65 234.67 2.29 54.06-34.88 10.87 2.98-65.68" fill="#fc9797"/><path d="m494.65 234.67 2.29 54.06" fill="none" stroke="#1d2b47" stroke-linecap="round" stroke-miterlimit="10" stroke-width="1.48"/><path d="m464 256.16s8.84 1.24 15.53-2.61c-2.23 10-16.36 20.91-16.36 20.91z" fill="#1d2b47"/><circle cx="471.27" cy="233.91" fill="#fc9797" r="23.4"/><g stroke="#1d2b47" stroke-miterlimit="10" stroke-width="1.48"><path d="m479.46 255.83a23.4 23.4 0 1 1 -7.13-45.3" fill="none" stroke-linecap="round"/><path d="m495.57 253.69s-12.43-.57-12.29-16.57c7.82-2.61 4.78-14-.62-12.48s-5.38 14-5.38 14-4.44-6.73-2.72-18.51l-28.32-1.28a17.85 17.85 0 0 1 -17-18.65 40.78 40.78 0 0 1 42.59-38.89c31.43 1.43 53.32 32 44.31 62.13-3.38 11.24-9.65 22.03-20.57 30.25z" fill="#1d2b47"/><path d="m462.06 299.6 1.79-43.42" fill="none" stroke-linecap="round"/></g><path d="m765.33 293.49-94.33-4.58-24.31 84.34-135-78.93.83 75.84.5 45.94 98.32 44.42c68.71 23.69 124.38-14.21 130.9-52.71l23.1-114.32" fill="#cfedff"/><g stroke="#1d2b47" stroke-miterlimit="10" stroke-width="1.48"><path d="m513 416.1 98.32 44.42c68.71 23.69 124.38-14.21 130.9-52.71l23.1-114.32" fill="none"/><path d="m765.33 293.49-94.36-4.58-24.31 84.34-134.98-78.93" fill="none"/><path d="m753.6 275.68-22.52-4.81-5 29.81 21.25 4.54a15.11 15.11 0 0 0 17.93-11.61 15.11 15.11 0 0 0 -11.66-17.93z" fill="#1d2b47"/><path d="m687.92 230.08-8.57 29.73-8.38 29.1 55.07 11.77 5.04-29.81 4.63-27.34z" fill="#fc9797"/></g><path d="m454.37 314.22 7.68-13.5a41.27 41.27 0 0 1 35.86-20.85h44.71v31.56h-61.62" fill="#cfedff"/><path d="m559.21 311.43h-78.19" fill="none" stroke="#1d2b47" stroke-linecap="round" stroke-miterlimit="10" stroke-width="1.48"/><path d="m542.62 279.87h-44.71a41.27 41.27 0 0 0 -35.86 20.85l-7.67 12.86a32.11 32.11 0 0 0 -4.33 12.89l-6.34 137.61" fill="none" stroke="#1d2b47" stroke-linecap="round" stroke-miterlimit="10" stroke-width="1.48"/><path d="m731.55 180.83-3.79-13.62-26.4-14.76a11.63 11.63 0 0 0 -17.18 8.41l-6.84 45 21 25.15 40.94-9.2.23-6.39c2.55-9.23-1-22-5.63-30.42z" fill="#fc9797"/><path d="m724.19 207.83c-12.7-13.08-30.88-10.83-30.88-10.83l5.66-13.3a9.68 9.68 0 0 0 -4.86-12.59l-2.83-1.3-14.54 23.12a12.7 12.7 0 0 0 -1 11.7l3.86 10a67.17 67.17 0 0 0 34.75 36.82l20.73-4.71 4.15-24.87" fill="#fc9797"/><path d="m734.61 187.05c8.21 11.68 5.25 31.81 5.25 31.81l-5.33 31.4" fill="none" stroke="#1d2b47" stroke-linecap="round" stroke-miterlimit="10" stroke-width="1.48"/><path d="m219.16 219.16 1.69-14 23.87-18.58a11.63 11.63 0 0 1 18.28 5.68l13.56 43.48-16.95 28-41.86-2.91-1.19-6.28c-3.91-8.74-2.35-21.94 1-30.92z" fill="#fc9797"/><path d="m230.51 244.74c10.58-14.85 28.89-15.38 28.89-15.38l-7.6-12.29a9.69 9.69 0 0 1 2.9-13.18l2.6-1.72 17.87 20.67a12.7 12.7 0 0 1 2.71 11.41l-2.31 10.44a67.12 67.12 0 0 1 -28.8 41.64l-19.25 6-9.8-31.46" fill="#fc9797"/><g stroke="#1d2b47" stroke-miterlimit="10" stroke-width="1.48"><g fill="none" stroke-linecap="round"><path d="m217.07 225.77c-6.35 12.78-.38 32.24-.38 32.24l11.42 36.08"/><path d="m649.35 363.95-10.18 34.38"/><path d="m334.64 386.16-21.83 17.5"/></g><path d="m914.24 354.43a123.56 123.56 0 0 1 -28.08-3.38c-49.17-11.48-96-49.5-119.33-96.87-35.2-71.5-95.55-75.57-96.16-75.61l1-17.74c.75 0 18.53 1.12 41.09 12.32 20.54 10.2 49.38 31.18 70.06 73.18a168.74 168.74 0 0 0 46.55 57c18.93 15 40 25.54 60.87 30.42 26.08 6.09 49.44 2.54 65.77-10" fill="#fff"/><path d="m637.86 115.58h39.74a0 0 0 0 1 0 0v91.29a0 0 0 0 1 0 0h-39.74a45.65 45.65 0 0 1 -45.65-45.65 45.65 45.65 0 0 1 45.65-45.64z" fill="#fcb332" transform="matrix(-.98793285 -.15488282 .15488282 -.98793285 1237.21 418.78)"/><ellipse cx="592.73" cy="154.61" fill="#cfedff" rx="45.65" ry="12.35" transform="matrix(.15488282 -.98793285 .98793285 .15488282 348.23 716.26)"/><ellipse cx="593.88" cy="137.69" fill="#1d2b47" rx="10.09" ry="3.05" transform="matrix(.15488282 -.98793285 .98793285 .15488282 365.92 703.1)"/><ellipse cx="589.3" cy="166.95" fill="#1d2b47" rx="10.09" ry="3.05" transform="matrix(.15488282 -.98793285 .98793285 .15488282 333.14 723.3)"/><path d="m598.22 201.68c6.74 1 15.36-18.28 19.27-43.19s1.6-45.95-5.14-47" fill="none"/><path d="m44 307.67c11.11 12 33.64 23.75 56.85 21.21 22.6-2.47 42.12-17.49 58-44.65 23.76-40.6 57.76-65.78 82.1-79.75 26.37-15.14 47.09-20.7 48-20.93l4.54 17.18c-.2.06-19.72 5.34-44.15 19.44-22.31 12.88-53.45 36-75.11 73-9.82 16.83-21.23 29.9-34.04 38.92a77.56 77.56 0 0 1 -45.8 14.91 87.81 87.81 0 0 1 -36.63-8.32" fill="#fff"/><g fill="#fc9797" stroke-linecap="round"><path d="m733.25 170.38a11 11 0 0 1 3 13.11l-6.49 14a5 5 0 0 1 -6.36 2.65 5 5 0 0 1 -3-5.92l3.26-29.41z"/><path d="m722.84 164.22a9.45 9.45 0 0 1 4.16 10.84l-6 19.6a5.39 5.39 0 0 1 -6.4 3.87 5.39 5.39 0 0 1 -4.17-5.87l.75-34.5z"/></g></g><path d="m711.24 158.11a10.62 10.62 0 0 1 5.5 11l-3.53 22.89a5.39 5.39 0 0 1 -5.87 4.64c-2.74-.28-7.23-5.26-7.25-8l-3-27.81a5.77 5.77 0 0 1 8.46-5.69z" fill="#fc9797"/><path d="m701.19 152.44 10 5.67a10.62 10.62 0 0 1 5.5 11l-3.48 22.89a5.39 5.39 0 0 1 -5.87 4.64 5.4 5.4 0 0 1 -4.86-5.32l.46-22.93" fill="none" stroke="#1d2b47" stroke-linecap="round" stroke-miterlimit="10" stroke-width="1.48"/><path d="m701.22 152.74a10.64 10.64 0 0 1 5.5 11l-3.53 22.85a5.39 5.39 0 0 1 -5.88 4.63c-2.73-.27-6.1-5.89-6.12-8.65l2-18.5-2.4-6.62z" fill="#fc9797"/><g stroke="#1d2b47" stroke-linecap="round" stroke-miterlimit="10" stroke-width="1.48"><path d="m701.22 152.74a10.64 10.64 0 0 1 5.5 11l-3.53 22.85a5.39 5.39 0 0 1 -5.88 4.63 5.38 5.38 0 0 1 -4.85-5.31l.46-22.93" fill="none"/><g fill="#fc9797"><path d="m724.19 207.83c-12.7-13.08-30.88-10.83-30.88-10.83l5.66-13.3a9.68 9.68 0 0 0 -4.86-12.59l-2.83-1.3-14.54 23.12a12.7 12.7 0 0 0 -1 11.7l3.86 10a67.24 67.24 0 0 0 11.16 18.87"/><path d="m215.9 209.08a11 11 0 0 0 -.93 13.41l8.51 12.82a5 5 0 0 0 6.69 1.66 5 5 0 0 0 2.06-6.3l-7.66-28.59z"/><path d="m225.26 201.42a9.43 9.43 0 0 0 -2.46 11.34l8.86 18.47a5.4 5.4 0 0 0 6.92 2.87 5.39 5.39 0 0 0 3.23-6.43l-5.94-34z"/></g></g><path d="m235.81 193.63a10.63 10.63 0 0 0 -3.78 11.7l6.94 22a5.39 5.39 0 0 0 6.5 3.7c2.67-.69 6.35-6.29 6-9l-1.28-27.93a5.77 5.77 0 0 0 -9.22-4.35z" fill="#fc9797"/><path d="m244.89 186.51-9.08 7.12a10.63 10.63 0 0 0 -3.78 11.7l6.94 22a5.39 5.39 0 0 0 6.5 3.7 5.41 5.41 0 0 0 4-6l-3.93-22.6" fill="none" stroke="#1d2b47" stroke-linecap="round" stroke-miterlimit="10" stroke-width="1.48"/><path d="m244.9 186.81a10.63 10.63 0 0 0 -3.77 11.7l6.93 22.06a5.39 5.39 0 0 0 6.51 3.69c2.67-.68 5.14-6.75 4.75-9.47l-4.78-18 1.37-6.91z" fill="#fc9797"/><g stroke="#1d2b47" stroke-miterlimit="10" stroke-width="1.48"><path d="m244.9 186.81a10.63 10.63 0 0 0 -3.77 11.7l6.93 22.06a5.39 5.39 0 0 0 6.51 3.69 5.39 5.39 0 0 0 4-6l-3.92-22.59" fill="none" stroke-linecap="round"/><path d="m230.51 244.74c10.58-14.85 28.89-15.38 28.89-15.38l-7.6-12.29a9.69 9.69 0 0 1 2.9-13.18l2.6-1.72 17.87 20.67a12.7 12.7 0 0 1 2.71 11.41l-2.31 10.44a67.12 67.12 0 0 1 -8.18 20.31" fill="#fc9797" stroke-linecap="round"/><path d="m323.23 132.82h39.77a0 0 0 0 1 0 0v91.29a0 0 0 0 1 0 0h-39.77a45.65 45.65 0 0 1 -45.65-45.65 45.65 45.65 0 0 1 45.65-45.64z" fill="#fcb332" transform="matrix(.9523958 -.3048643 .3048643 .9523958 -39.16 106.14)"/><ellipse cx="360.93" cy="165.45" fill="#cfedff" rx="12.35" ry="45.65" transform="matrix(.9523958 -.3048643 .3048643 .9523958 -33.26 117.92)"/><path d="m363 212.72c-6.5 2.08-18-15.7-25.69-39.71s-8.65-45.16-2.15-47.24" fill="none"/><rect fill="#1d2b47" height="15.04" rx="7.52" transform="matrix(.9523958 -.3048643 .3048643 .9523958 -26.84 119.96)" width="38.89" x="351.22" y="138.4"/><rect fill="#1d2b47" height="15.04" rx="7.52" transform="matrix(.9523958 -.3048643 .3048643 .9523958 -35.34 124.22)" width="38.89" x="360.61" y="167.73"/><rect fill="#fff" height="15.04" rx="7.52" transform="matrix(.9523958 -.3048643 .3048643 .9523958 -26.35 120.94)" width="38.89" x="354.6" y="137.31"/><rect fill="#fff" height="15.04" rx="7.52" transform="matrix(.9523958 -.3048643 .3048643 .9523958 -34.79 125.17)" width="38.89" x="363.94" y="166.47"/><path d="m463.67 25-24.41 51.05h40.69l-19.98 49.57 51.06-67.33h-38.48l16.28-33.29z" fill="#fcb332"/><path d="m561.33 487.42h-150.18c-4.36 0-7.55-5.48-6.45-11.08l1.18-6c.76-3.89 3.41-6.61 6.45-6.61h147.82c3 0 5.69 2.72 6.45 6.61l1.18 6c1.1 5.6-2.09 11.08-6.45 11.08z" fill="#cfedff"/></g></svg>