<svg xmlns="http://www.w3.org/2000/svg" width="40" height="40" viewBox="0 0 40 40"><g fill="#1D2B47"><path d="M20,40 C8.96551724,40 0,31.0344828 0,20 C0,8.96551724 8.96551724,0 20,0 C31.0344828,0 40,8.96551724 40,20 C40,31.0344828 31.0344828,40 20,40 Z M20,1.72413793 C9.82758621,1.72413793 1.72413793,9.82758621 1.72413793,20 C1.72413793,30.1724138 9.82758621,38.2758621 20,38.2758621 C30.1724138,38.2758621 38.2758621,30 38.2758621,20 C38.2758621,10 30.1724138,1.72413793 20,1.72413793 Z"/><g transform="translate(8 7)"><path d="M12.5366033,17.9419355 C10.1565906,17.9419355 8.11657979,16.0258065 8.11657979,13.4129032 C8.11657979,10.9741935 9.98658973,8.88387097 12.5366033,8.88387097 C14.9166159,8.88387097 16.7866259,10.8 16.7866259,13.4129032 C16.9566268,15.8516129 14.9166159,17.9419355 12.5366033,17.9419355 Z M12.5366033,10.6258065 C11.0065952,10.6258065 9.81658883,11.8451613 9.81658883,13.4129032 C9.81658883,14.9806452 11.0065952,16.2 12.5366033,16.2 C14.0666114,16.2 15.0866168,14.9806452 15.0866168,13.4129032 C15.2566178,11.8451613 14.0666114,10.6258065 12.5366033,10.6258065 Z"/><path d="M14.0666114,27 L11.0065952,27 C10.1565906,27 9.47658702,26.4774194 9.13658521,25.6064516 L8.79658341,23.8645161 C7.77657798,23.516129 6.75657256,22.8193548 5.73656714,22.1225806 L4.0365581,22.6451613 C3.18655358,22.8193548 2.33654906,22.4709677 1.82654635,21.7741935 L0.296538214,18.9870968 C-0.213464497,18.2903226 -0.0434635935,17.2451613 0.636540022,16.5483871 L1.99654725,15.1548387 C1.82654635,13.9354839 1.82654635,12.716129 1.99654725,11.6709677 L0.636540022,10.4516129 C0.12653731,9.75483871 -0.0434635935,8.88387097 0.296538214,8.01290323 L1.82654635,5.22580645 C2.33654906,4.52903226 3.18655358,4.18064516 4.0365581,4.35483871 L5.73656714,4.87741935 C6.24656985,4.52903226 6.75657256,4.18064516 7.09657437,3.83225806 C7.60657708,3.48387097 8.11657979,3.30967742 8.6265825,3.13548387 L8.96658431,1.39354839 C9.13658521,0.522580645 9.98658973,0 10.8365943,0 L13.8966105,0 C14.746615,0 15.5966196,0.696774194 15.7666205,1.56774194 L16.1066223,3.30967742 C17.1266277,3.65806452 18.1466331,4.35483871 19.1666385,5.0516129 L20.8666476,4.52903226 C21.7166521,4.35483871 22.5666566,4.70322581 23.0766593,5.4 L24.6066675,8.01290323 C25.1166702,8.70967742 24.9466693,9.75483871 24.2666657,10.2774194 L23.0766593,11.6709677 C23.2466602,12.8903226 23.2466602,14.1096774 23.0766593,15.1548387 L24.4366666,16.3741935 C25.1166702,16.8967742 25.1166702,17.9419355 24.7766684,18.8129032 L23.2466602,21.6 C22.9066584,22.2967742 21.886653,22.6451613 21.0366485,22.4709677 L19.3366394,21.9483871 C18.8266367,22.2967742 18.316634,22.6451613 17.9766322,22.9935484 C17.4666295,23.3419355 16.9566268,23.516129 16.4466241,23.6903226 L16.1066223,25.4322581 C15.7666205,26.3032258 14.9166159,27 14.0666114,27 Z M5.90656804,20.0322581 C6.07656894,20.0322581 6.24656985,20.0322581 6.41657075,20.2064516 C7.43657618,21.0774194 8.4565816,21.7741935 9.64658793,22.1225806 C9.98658973,22.2967742 10.1565906,22.4709677 10.1565906,22.8193548 L10.6665933,25.083871 C10.6665933,25.083871 10.6665933,25.2580645 10.8365943,25.2580645 L13.8966105,25.2580645 C13.8966105,25.2580645 14.0666114,25.2580645 14.0666114,25.083871 L14.5766141,22.8193548 C14.5766141,22.4709677 14.9166159,22.2967742 15.0866168,22.1225806 C15.5966196,21.9483871 16.1066223,21.7741935 16.7866259,21.4258065 C17.2966286,21.0774194 17.8066313,20.7290323 18.316634,20.3806452 C18.4866349,20.2064516 18.8266367,20.0322581 19.1666385,20.2064516 L21.3766503,20.9032258 C21.3766503,20.9032258 21.5466512,20.9032258 21.5466512,20.9032258 L23.0766593,18.116129 C23.0766593,18.116129 23.0766593,17.9419355 23.0766593,17.9419355 L21.3766503,16.3741935 C21.2066494,16.2 21.0366485,15.8516129 21.2066494,15.5032258 C21.3766503,14.283871 21.3766503,12.8903226 21.2066494,11.6709677 C21.2066494,11.3225806 21.2066494,11.1483871 21.3766503,10.8 L23.0766593,9.23225806 C23.0766593,9.23225806 23.0766593,9.05806452 23.0766593,9.05806452 L21.3766503,6.27096774 L19.3366394,6.79354839 C18.9966376,6.79354839 18.8266367,6.79354839 18.4866349,6.61935484 C17.6366304,5.7483871 16.4466241,5.0516129 15.4266187,4.70322581 C15.0866168,4.52903226 14.9166159,4.35483871 14.9166159,4.00645161 L14.2366123,1.74193548 C14.2366123,1.56774194 14.0666114,1.56774194 14.0666114,1.56774194 L11.0065952,1.56774194 C10.8365943,1.56774194 10.8365943,1.56774194 10.8365943,1.74193548 L10.3265915,4.00645161 C10.3265915,4.35483871 9.98658973,4.52903226 9.81658883,4.70322581 C9.13658521,4.87741935 8.6265825,5.22580645 8.11657979,5.4 C7.60657708,5.7483871 7.09657437,6.09677419 6.58657166,6.61935484 C6.24656985,6.79354839 6.07656894,6.79354839 5.73656714,6.79354839 L3.52655539,6.09677419 C3.35655448,6.09677419 3.35655448,6.09677419 3.35655448,6.27096774 L1.82654635,8.88387097 C1.82654635,8.88387097 1.82654635,9.05806452 1.82654635,9.05806452 L3.52655539,10.6258065 C3.69655629,10.8 3.86655719,11.1483871 3.69655629,11.4967742 C3.35655448,12.716129 3.35655448,13.9354839 3.69655629,15.3290323 C3.69655629,15.6774194 3.69655629,15.8516129 3.52655539,16.2 L1.82654635,17.7677419 C1.82654635,17.7677419 1.82654635,17.9419355 1.82654635,17.9419355 L3.35655448,20.7290323 C3.35655448,20.7290323 3.52655539,20.7290323 3.52655539,20.7290323 L5.73656714,20.0322581 C5.73656714,20.0322581 5.90656804,20.0322581 5.90656804,20.0322581 Z"/></g></g></svg>