<svg xmlns="http://www.w3.org/2000/svg" width="27" height="36" viewBox="0 0 27 36"><g fill="#CFEDFF"><path d="M20.7830009,8.72113943 L6.21553176,8.72113943 C5.81055377,8.72113943 5.48187599,8.38530735 5.48187599,7.97151424 L5.48187599,2.1964018 C5.48187599,1.7826087 5.81055377,1.44677661 6.21553176,1.44677661 L10.6262703,1.44677661 C11.3144394,0.533733133 12.3606326,0 13.4992663,0 C14.6364328,0 15.6826259,0.532233883 16.3707951,1.44677661 L20.7844682,1.44677661 C21.1894462,1.44677661 21.518124,1.7826087 21.518124,2.1964018 L21.518124,7.97151424 C21.5166567,8.38530735 21.1894462,8.72113943 20.7830009,8.72113943 Z M6.95065486,7.22188906 L20.0508125,7.22188906 L20.0508125,2.94602699 L15.9848921,2.94602699 C15.7281126,2.94602699 15.4904081,2.80809595 15.3568828,2.58470765 C14.5542634,1.22638681 12.442802,1.22788606 11.6431172,2.5832084 C11.5110592,2.80809595 11.2718874,2.94602699 11.0151079,2.94602699 L6.95065486,2.94602699 L6.95065486,7.22188906 Z"/><path d="M24.3559046,36 L2.64262812,36 C1.18558774,36 0,34.7886057 0,33.2998501 L0,6.61769115 C0,5.12893553 1.18558774,3.91754123 2.64262812,3.91754123 L6.21699908,3.91754123 C6.62197707,3.91754123 6.95065486,4.25337331 6.95065486,4.66716642 L6.95065486,7.22038981 L20.0508125,7.22038981 L20.0508125,4.66716642 C20.0508125,4.25337331 20.3794902,3.91754123 20.7844682,3.91754123 L24.3573719,3.91754123 C25.8144123,3.91754123 27,5.12893553 27,6.61769115 L27,33.2998501 C26.9985327,34.7886057 25.8129449,36 24.3559046,36 Z M2.64262812,5.4167916 C1.99554372,5.4167916 1.46731156,5.95652174 1.46731156,6.61769115 L1.46731156,33.2998501 C1.46731156,33.9610195 1.99407641,34.5007496 2.64262812,34.5007496 L24.3559046,34.5007496 C25.002989,34.5007496 25.5312211,33.9625187 25.5312211,33.2998501 L25.5312211,6.61769115 C25.5312211,5.95652174 25.0044563,5.4167916 24.3559046,5.4167916 L21.5166567,5.4167916 L21.5166567,7.97001499 C21.5166567,8.3838081 21.1879789,8.71964018 20.7830009,8.71964018 L6.21553176,8.71964018 C5.81055377,8.71964018 5.48187599,8.3838081 5.48187599,7.97001499 L5.48187599,5.4167916 L2.64262812,5.4167916 Z"/><path d="M23.2202054,32.5217391 L3.77832726,32.5217391 C3.37334927,32.5217391 3.04467149,32.185907 3.04467149,31.7721139 L3.04467149,7.96251874 C3.04467149,7.54872564 3.37334927,7.21289355 3.77832726,7.21289355 L23.2202054,7.21289355 C23.6251834,7.21289355 23.9538612,7.54872564 23.9538612,7.96251874 L23.9538612,31.7721139 C23.9538612,32.185907 23.6251834,32.5217391 23.2202054,32.5217391 Z M4.51198304,31.0224888 L22.4865496,31.0224888 L22.4865496,8.71214393 L4.51198304,8.71214393 L4.51198304,31.0224888 Z"/><g transform="translate(8 12)"><rect width="13" height="1.514"/><rect width="13" height="1.514" y="4.162"/><rect width="13" height="1.514" y="8.324"/><rect width="8.144" height="1.514" y="12.486"/></g></g></svg>