<svg xmlns="http://www.w3.org/2000/svg" version="1.1" xmlns:xlink="http://www.w3.org/1999/xlink" xmlns:svgjs="http://svgjs.com/svgjs" width="32" height="32"><svg xmlns="http://www.w3.org/2000/svg" width="32" height="32" viewBox="0 0 32 32"><g fill="none" fill-rule="evenodd"><circle cx="16" cy="16" r="16" fill="#1D2B47"></circle><g fill="#CFEDFF" fill-rule="nonzero" transform="translate(5 6)"><path d="M11,22 C4.93103448,22 0,17.0689655 0,11 C0,4.93103448 4.93103448,0 11,0 C17.0689655,0 22,4.93103448 22,11 C22,17.0689655 17.0689655,22 11,22 Z M11,0.948275862 C5.40517241,0.948275862 0.948275862,5.40517241 0.948275862,11 C0.948275862,16.5948276 5.5,21.0517241 11,21.0517241 C16.5948276,21.0517241 21.0517241,16.5 21.0517241,11 C21.0517241,5.40517241 16.5948276,0.948275862 11,0.948275862 Z"></path><path d="M10.8107527,17.7419355 C10.8107527,17.7419355 10.716129,17.7419355 10.716129,17.7419355 C10.5268817,17.6460944 10.3376344,17.4544123 10.3376344,17.2627302 L10.5268817,12.66236 L6.83655914,12.66236 C6.64731183,12.66236 6.55268817,12.5665189 6.45806452,12.4706779 C6.36344086,12.2789958 6.36344086,12.1831548 6.45806452,11.9914727 L10.716129,4.13250681 C10.8107527,3.94082471 11.0946237,3.84498367 11.283871,3.94082471 C11.4731183,4.03666576 11.6623656,4.22834785 11.6623656,4.42002995 L11.4731183,9.02040021 L15.1634409,9.02040021 C15.3526882,9.02040021 15.4473118,9.11624125 15.5419355,9.2120823 C15.6365591,9.40376439 15.6365591,9.49960544 15.5419355,9.69128753 L11.283871,17.5502534 C11.1892473,17.6460944 11,17.7419355 10.8107527,17.7419355 Z M7.68817204,11.7039495 L11.0946237,11.7039495 C11.1892473,11.7039495 11.3784946,11.7997906 11.4731183,11.8956316 C11.5677419,11.9914727 11.5677419,12.0873137 11.5677419,12.2789958 L11.3784946,15.3459093 L14.311828,10.0746517 L10.9053763,10.0746517 C10.8107527,10.0746517 10.6215054,9.97881068 10.5268817,9.88296963 C10.4322581,9.78712858 10.4322581,9.69128753 10.4322581,9.49960544 L10.6215054,6.43269194 L7.68817204,11.7039495 Z"></path></g></g></svg><style>@media (prefers-color-scheme: light) { :root { filter: none; } }
</style></svg>