<svg xmlns="http://www.w3.org/2000/svg" width="38" height="56" viewBox="0 0 38 56"><g fill="#1D2B47"><path d="M33.308642,56 L4.69135802,56 C2.11111111,56 0,53.9 0,51.3333333 L0,4.66666667 C0,2.1 2.11111111,0 4.69135802,0 L33.308642,0 C35.8888889,0 38,2.1 38,4.66666667 L38,51.3333333 C38,53.9 35.8888889,56 33.308642,56 Z M4.69135802,2.33333333 C3.51851852,2.33333333 2.34567901,3.26666667 2.34567901,4.66666667 L2.34567901,51.3333333 C2.34567901,52.5 3.28395062,53.6666667 4.69135802,53.6666667 L33.308642,53.6666667 C34.4814815,53.6666667 35.654321,52.7333333 35.654321,51.3333333 L35.654321,4.66666667 C35.654321,3.5 34.7160494,2.33333333 33.308642,2.33333333 L4.69135802,2.33333333 Z"/><rect width="2.346" height="53.667" x="13.84" y="1.167"/><g transform="translate(7.975 23.333)"><rect width="2.346" height="9.1"/><rect width="2.346" height="9.1" x="11.728"/></g><path d="M31.8679245,20 L22.1320755,20 C21.4528302,20 21,19.5 21,18.75 L21,10.25 C21,9.5 21.4528302,9 22.1320755,9 L31.8679245,9 C32.5471698,9 33,9.5 33,10.25 L33,18.75 C33,19.5 32.5471698,20 31.8679245,20 Z M23.2641509,17.5 L30.7358491,17.5 L30.7358491,11.5 L23.2641509,11.5 L23.2641509,17.5 Z"/></g></svg>