<svg xmlns="http://www.w3.org/2000/svg" width="33" height="54" viewBox="0 0 33 54"><g fill="#1D2B47"><path d="M24.0204082,47 L8.75510204,47 C3.81632653,47 0,43.0806452 0,38.5080645 L0,21.0887097 C0,20.4354839 0.448979592,20 1.12244898,20 L31.877551,20 C32.5510204,20 33,20.4354839 33,21.0887097 L33,38.5080645 C33,43.2983871 28.9591837,47 24.0204082,47 Z M2.02040816,21.9596774 L2.02040816,38.2903226 C2.02040816,41.7741935 4.93877551,44.6048387 8.53061224,44.6048387 L23.7959184,44.6048387 C27.3877551,44.6048387 30.5306122,41.7741935 30.5306122,38.2903226 L30.5306122,21.9596774 L2.02040816,21.9596774 Z"/><path d="M24.8690476,54 L8.13095238,54 C7.45238095,54 7,53.5135135 7,52.7837838 L7,46.2162162 C7,45.4864865 7.45238095,45 8.13095238,45 L24.8690476,45 C25.547619,45 26,45.4864865 26,46.2162162 L26,52.7837838 C26,53.5135135 25.547619,54 24.8690476,54 Z M9.26190476,51.5675676 L23.7380952,51.5675676 L23.7380952,47.4324324 L9.26190476,47.4324324 L9.26190476,51.5675676 Z"/><polygon points="8 27 25 27 25 29 8 29"/><polygon points="8 33 25 33 25 35 8 35"/><polygon points="8 38 25 38 25 40 8 40"/><path d="M10.6666667 18 5.11111111 18C4.44444444 18 4 17.5263158 4 16.8157895L4 4.26315789C4 1.89473684 5.77777778 0 8 0 10.2222222 0 12 1.89473684 12 4.26315789L12 16.8157895C11.7777778 17.5263158 11.3333333 18 10.6666667 18L10.6666667 18ZM6.22222222 15.6315789 9.55555556 15.6315789 9.55555556 4.26315789C9.55555556 3.31578947 8.88888889 2.36842105 7.77777778 2.36842105 6.88888889 2.36842105 6 3.07894737 6 4.26315789L6 15.6315789 6.22222222 15.6315789ZM26.6666667 18 21.1111111 18C20.4444444 18 20 17.5263158 20 16.8157895L20 4.26315789C20 1.89473684 21.7777778 0 24 0 26.2222222 0 28 1.89473684 28 4.26315789L28 16.8157895C27.7777778 17.5263158 27.3333333 18 26.6666667 18ZM22.2222222 15.6315789 25.5555556 15.6315789 25.5555556 4.26315789C25.5555556 3.31578947 24.8888889 2.36842105 23.7777778 2.36842105 22.8888889 2.36842105 22 3.07894737 22 4.26315789L22 15.6315789 22.2222222 15.6315789Z"/></g></svg>