<svg xmlns="http://www.w3.org/2000/svg" width="64" height="50" viewBox="0 0 64 50"><g fill="#1D2B47" fill-rule="evenodd"><path d="M2.69754516 36.3629788 61.2876332 36.3629788 61.3054192 2.63702124 2.69754516 2.63702124 2.69754516 36.3629788ZM62.6067624 39 1.39916628 39C.717369152 39 .154145438 38.5100129.0592867068 37.8329399.0207503474 37.6131882 0 37.4231326 0 37.2301074L0 1.77286226C0 1.57686743.0207503474 1.38681185.0474293654 1.26208787.148216767.593923704.723297823 0 1.39916628 0L62.6067624 0C63.2855952 0 63.8517832.489987056 63.9436776 1.16706008 63.982214 1.38681185 64 1.57686743 64 1.77286226L64 37.2301074C64 37.4231326 63.982214 37.6131882 63.9584993 37.7379121 63.8547476 38.4060763 63.2796665 39 62.6067624 39L62.6067624 39ZM53.2977939 50C47.4677127 48.4281609 39.8644136 47.6149425 31.9631194 47.6149425 24.1031315 47.6149425 16.5145846 48.4281609 10.7051566 50L10 47.4942529C16.054315 45.887931 23.8611949 45 31.9631194 45 40.1152015 45 47.9279823 45.887931 54 47.4942529L53.2977939 50Z"/><polygon points="16 48 18.664 48 18.664 41 16 41"/><polygon points="44 48 46.664 48 46.664 41 44 41"/><path d="M5.23114697 8C4.93370747 8 4.61381971 7.86682851 4.36408278 7.59493671 3.87863907 7.11496445 3.87863907 6.36032599 4.36408278 5.82486561L5.84005612 4.35997919C6.32830586 3.88000694 7.15047352 3.88000694 7.63591722 4.35997919 8.12136093 4.83995145 8.12136093 5.65285244 7.63591722 6.13282469L6.15994388 7.59493671C5.88495265 7.86682851 5.58751315 8 5.23114697 8M6.38954719 16C6.06369022 16 5.66645507 15.847298 5.4305967 15.6135704 4.85646777 15.0744387 4.85646777 14.1582265 5.4305967 13.6190948L13.6111581 5.40434875C14.1480463 4.86521708 14.992171 4.86521708 15.5973339 5.40434875 16.134222 5.94348042 16.134222 6.84411077 15.5973339 7.39882428L7.38884187 15.6135704C7.1126393 15.847298 6.73712794 16 6.38954719 16"/></g></svg>