<svg xmlns="http://www.w3.org/2000/svg" width="51" height="61" viewBox="0 0 51 61"><g fill="#1D2B47"><path d="M43.1241778,61 L8.11749229,61 C3.55140288,61 0,57.4416667 0,52.8666667 L0,8.13333333 C0,3.55833333 3.80507451,0 8.11749229,0 L42.8705062,0 C47.4365956,0 50.9879985,3.55833333 50.9879985,8.13333333 L50.9879985,53.1208333 C51.2416701,57.4416667 47.4365956,61 43.1241778,61 Z M8.11749229,2.54166667 C5.07343268,2.54166667 2.53671634,5.08333333 2.53671634,8.13333333 L2.53671634,53.1208333 C2.53671634,56.1708333 5.07343268,58.7125 8.11749229,58.7125 L42.8705062,58.7125 C45.9145658,58.7125 48.4512821,56.1708333 48.4512821,53.1208333 L48.4512821,8.13333333 C48.4512821,5.08333333 45.9145658,2.54166667 42.8705062,2.54166667 L8.11749229,2.54166667 Z"/><path d="M49.9850746 19 1.26865672 19C.507462687 19 0 18.4 0 17.5 0 16.6.507462687 16 1.26865672 16L49.7313433 16C50.4925373 16 51 16.6 51 17.5 51 18.4 50.4925373 19 49.9850746 19ZM19.6440678 12 6.3559322 12C5.54237288 12 5 11.5172414 5 10.7931034L5 6.20689655C5 5.48275862 5.54237288 5 6.3559322 5L19.6440678 5C20.4576271 5 21 5.48275862 21 6.20689655L21 10.7931034C21 11.5172414 20.4576271 12 19.6440678 12ZM7.71186441 9.5862069 18.2881356 9.5862069 18.2881356 7.4137931 7.71186441 7.4137931 7.71186441 9.5862069Z"/><path d="M3.42105263 3 1.31578947 3C.526315789 3 0 2.4 0 1.5 0 .6.526315789 0 1.31578947 0L3.42105263 0C4.21052632 0 4.73684211.6 4.73684211 1.5 4.73684211 2.4 4.21052632 3 3.42105263 3ZM11.0526316 3 8.94736842 3C8.15789474 3 7.63157895 2.4 7.63157895 1.5 7.63157895.6 8.15789474 0 8.94736842 0L11.0526316 0C11.8421053 0 12.3684211.6 12.3684211 1.5 12.3684211 2.4 11.8421053 3 11.0526316 3ZM18.6842105 3 16.5789474 3C15.7894737 3 15.2631579 2.4 15.2631579 1.5 15.2631579.6 15.7894737 0 16.5789474 0L18.6842105 0C19.4736842 0 20 .6 20 1.5 20 2.4 19.2105263 3 18.6842105 3Z" transform="translate(24 6)"/><path d="M3.42105263 3 1.31578947 3C.526315789 3 0 2.4 0 1.5 0 .6.526315789 0 1.31578947 0L3.42105263 0C4.21052632 0 4.73684211.6 4.73684211 1.5 4.73684211 2.4 4.21052632 3 3.42105263 3ZM11.0526316 3 8.94736842 3C8.15789474 3 7.63157895 2.4 7.63157895 1.5 7.63157895.6 8.15789474 0 8.94736842 0L11.0526316 0C11.8421053 0 12.3684211.6 12.3684211 1.5 12.3684211 2.4 11.8421053 3 11.0526316 3ZM18.6842105 3 16.5789474 3C15.7894737 3 15.2631579 2.4 15.2631579 1.5 15.2631579.6 15.7894737 0 16.5789474 0L18.6842105 0C19.4736842 0 20 .6 20 1.5 20 2.4 19.2105263 3 18.6842105 3Z" transform="translate(24 10)"/><path d="M25.7209302 48C20.3488372 48 16 43.6511628 16 38.2790698 16 37.5116279 16.5116279 37 17.2790698 37 18.0465116 37 18.5581395 37.5116279 18.5581395 38.2790698 18.5581395 42.1162791 21.8837209 45.4418605 25.7209302 45.4418605 26.4883721 45.4418605 27 45.9534884 27 46.7209302 27 47.4883721 26.4883721 48 25.7209302 48ZM33.7209302 41C32.9534884 41 32.4418605 40.4883721 32.4418605 39.7209302 32.4418605 35.8837209 29.1162791 32.5581395 25.2790698 32.5581395 24.5116279 32.5581395 24 32.0465116 24 31.2790698 24 30.5116279 24.5116279 30 25.2790698 30 30.6511628 30 35 34.3488372 35 39.7209302 35 40.4883721 34.4883721 41 33.7209302 41ZM45.7804878 43 38.2195122 43C37.4878049 43 37 42.4705882 37 41.6764706L37 35.3235294C37 34.5294118 37.4878049 34 38.2195122 34L45.7804878 34C46.5121951 34 47 34.5294118 47 35.3235294L47 41.6764706C47 42.4705882 46.5121951 43 45.7804878 43ZM39.4390244 40.3529412 44.5609756 40.3529412 44.5609756 36.6470588 39.4390244 36.6470588 39.4390244 40.3529412Z"/><path d="M26.1259843,55 C17.3070866,55 10,47.75 10,39 C10,30.25 17.3070866,23 26.1259843,23 C33.6850394,23 40.2362205,28.25 41.7480315,35.5 C41.7480315,35.75 42,36 42,36 C42,36.75 41.496063,37.25 40.7401575,37.25 C40.7401575,37.25 40.7401575,37.25 40.7401575,37.25 L39.2283465,37.25 L39.2283465,40.75 L40.7401575,40.75 C41.2440945,40.75 41.496063,41 41.7480315,41.25 C42,41.5 42,42 42,42.25 C40.488189,49.75 33.6850394,55 26.1259843,55 Z M26.1259843,25.5 C18.5669291,25.5 12.519685,31.5 12.519685,39 C12.519685,46.5 18.5669291,52.5 26.1259843,52.5 C31.9212598,52.5 37.2125984,48.75 38.976378,43.25 L37.9685039,43.25 C37.2125984,43.25 36.7086614,42.75 36.7086614,42 L36.7086614,36 C36.7086614,35.25 37.2125984,34.75 37.9685039,34.75 L38.976378,34.75 C37.2125984,29.5 31.9212598,25.5 26.1259843,25.5 Z"/></g></svg>