<svg xmlns="http://www.w3.org/2000/svg" width="38" height="38" viewBox="0 0 38 38"><g fill="#1D2B47" transform="translate(.615 .615)"><path d="M18.4924897,43.3847763 C17.9974592,43.3823148 17.5936706,42.9104081 17.591176,42.3314035 L17.3847763,-5.5707347 C17.3822933,-6.14973926 17.7820325,-6.61766603 18.277063,-6.61522369 C18.7720934,-6.61276216 19.175882,-6.14085544 19.1783766,-5.56185088 L19.3847763,42.3402873 C19.3872594,42.9192919 18.9875201,43.3872187 18.4924897,43.3847763 Z" transform="rotate(-45 18.385 18.385)"/><path d="M18.277063,43.3847763 C17.7820325,43.3872187 17.3822933,42.9192919 17.3847763,42.3402873 L17.591176,-5.56185088 C17.5936706,-6.14085544 17.9974592,-6.61276216 18.4924897,-6.61522369 C18.9875201,-6.61766603 19.3872594,-6.14973926 19.3847763,-5.5707347 L19.1783766,42.3314035 C19.175882,42.9104081 18.7720934,43.3823148 18.277063,43.3847763 Z" transform="rotate(45 18.385 18.385)"/></g></svg>