<svg xmlns="http://www.w3.org/2000/svg" width="116" height="124" viewBox="0 0 116 124"><g fill="none" fill-rule="evenodd" transform="translate(1 1.35)"><g stroke="#1D2B47" stroke-width="1.61" transform="translate(0 45.868)"><path fill="#F76D6D" fill-rule="nonzero" d="M92.3659385,38.2506947 L91.9329528,38.2506947 C90.2486709,38.2506947 88.8832907,36.8764728 88.8832907,35.1812842 L88.8832907,33.9116842 L86.6837237,33.9116842 C86.2052609,33.9174173 85.8029388,33.5517173 85.760021,33.0720631 C85.7436578,32.8235643 85.8302606,32.5793386 85.9992503,32.3974202 C86.1682401,32.2155018 86.4045299,32.1121319 86.6519714,32.1118736 L89.0030834,32.1118736 C89.3766355,30.7920814 90.5738138,29.8811229 91.9372827,29.8791789 L93.566752,29.8791789 C95.1030256,29.8791269 96.4970068,28.9739054 97.1302237,27.5651368 L97.5516631,26.6281894 C97.6534763,26.4013733 97.8441428,26.2271762 98.0782722,26.1470678 C98.3124016,26.0669593 98.5690486,26.088106 98.7871154,26.2054736 C99.2051563,26.4409754 99.3714547,26.9614869 99.1681428,27.3980842 L98.7625795,28.3074315 C97.8399719,30.3619715 95.8068848,31.6818044 93.566752,31.6804421 L91.9358394,31.6804421 C91.6271281,31.6804983 91.3292052,31.7947523 91.0987338,32.0014736 C91.0800226,32.0192276 91.0737963,32.0465863 91.0829639,32.0707673 C91.0921315,32.0949484 91.1148833,32.1111781 91.1405891,32.1118736 L92.3038772,32.1118736 C94.0112839,32.1118736 95.443023,33.518021 95.4141573,35.2350315 C95.3835034,36.9079657 94.0283904,38.2486058 92.3659385,38.2506947 L92.3659385,38.2506947 Z M90.6801811,33.9116842 L90.6801811,35.1812842 C90.6809744,35.881567 91.2443933,36.449284 91.9401693,36.4508842 L92.3731549,36.4508842 C93.0698243,36.4508842 93.6345864,35.8824649 93.6345864,35.1812842 C93.6345864,34.4801034 93.0698243,33.9116842 92.3731549,33.9116842 L90.6801811,33.9116842 Z"/><path d="M91.3022371,31.8605684 C91.3022371,31.8605684 90.7667782,31.8605684 90.6772945,33.9305684"/><path fill="#F76D6D" fill-rule="nonzero" d="M16.4548973,18.4600421 L16.4548973,0 C24.6816244,3.20595789 29.7749787,9.21694735 29.7749787,15.7334526 L29.7749787,16.6602316 C29.7749787,18.5893263 31.4578495,20.1465473 33.5347373,20.1465473"/><path fill="#1D2B47" fill-rule="nonzero" d="M4.65892541 52.7406947 7.71869055 71.1557051C8.07064454 73.2513794 9.87331593 74.7858388 11.9850423 74.7872841 14.0973143 74.7865471 15.9007921 73.2519205 16.2528374 71.1557051L19.3126025 52.7406947M35.7819327 52.7406947 38.8402545 71.1557051C39.1922998 73.2519205 40.9957776 74.7865471 43.1080496 74.7872841 45.2203216 74.7865471 47.0237994 73.2519205 47.3758447 71.1557051L50.4356098 52.7406947M0 0C0 0 5.11500361 4.70362104 5.03129305 17.7221052 5.02103404 19.0933133 3.91702515 20.2012336 2.55461523 20.2075579L2.49399724 20.2075579C1.1199895 20.2075579.00721642721 24.0686526.00721642721 22.6872L0 0ZM70.6444926 32.1118736 69.3036804 32.1118736 69.3036804 33.9305684 71.9997376 33.9305684C71.9997376 33.9305684 70.6444926 33.656021 70.6444926 32.1118736Z" transform="translate(16.455)"/><path fill="#F76D6D" fill-rule="nonzero" d="M64.1237289,12.2093505 L34.2477203,12.2093505 C28.0664934,12.2015519 22.1551401,14.7573246 17.9053992,19.2749684 C14.8261845,22.5458164 10.5473739,24.4002452 6.07045857,24.4042105 L3.93872597,24.4042105 L3.93872597,46.0963578 L6.07478843,46.0963578 C10.5518443,46.0996384 14.830912,47.9541786 17.9097291,51.2255999 C22.1583363,55.7422863 28.0679624,58.2979893 34.2477203,58.2912134 L64.1237289,58.2912134 C76.5662006,58.2895955 86.6519714,48.1372126 86.6519714,35.6141684 L86.6519714,34.8878526 C86.6519714,22.3642411 76.5667642,12.2109728 64.1237289,12.2093505 L64.1237289,12.2093505 Z"/><path fill="#F76D6D" fill-rule="nonzero" d="M64.1237289,12.2093505 L34.2477203,12.2093505 C28.0664934,12.2015519 22.1551401,14.7573246 17.9053992,19.2749684 C14.8261845,22.5458164 10.5473739,24.4002452 6.07045857,24.4042105 L3.93872597,24.4042105 L3.93872597,46.0963578 L6.07478843,46.0963578 C10.5518443,46.0996384 14.830912,47.9541786 17.9097291,51.2255999 C22.1583363,55.7422863 28.0679624,58.2979893 34.2477203,58.2912134 L64.1237289,58.2912134 C76.5662006,58.2895955 86.6519714,48.1372126 86.6519714,35.6141684 L86.6519714,34.8878526 C86.6519714,22.3642411 76.5667642,12.2109728 64.1237289,12.2093505 L64.1237289,12.2093505 Z"/><path fill="#1D2B47" fill-rule="nonzero" d="M43.1022765,53.7313894 C39.0783966,57.4210736 35.2219379,54.6029683 33.5376238,58.2795789 C33.7743226,58.2795789 34.0095782,58.2911999 34.2477203,58.2911999 L50.2840648,58.2911999 C44.5874172,56.9111999 43.1022765,53.7313894 43.1022765,53.7313894 L43.1022765,53.7313894 Z"/><ellipse cx="3.894" cy="35.251" fill="#FC9797" fill-rule="nonzero" rx="3.894" ry="10.845"/><ellipse cx="5.528" cy="35.026" fill="#1D2B47" fill-rule="nonzero" rx="1" ry="2.506"/><ellipse cx="1.938" cy="34.576" fill="#1D2B47" fill-rule="nonzero" rx="1" ry="2.506"/><path fill="#F76D6D" fill-rule="nonzero" d="M23.2022568,18.9989684 L23.2022568,0.536021052 C32.3180476,3.74197894 37.9555206,9.75442104 37.9555206,16.2709263 L37.9555206,17.2006105 C37.9555206,19.1297052 39.8188021,20.6869263 42.1193991,20.6869263"/><path fill="#1D2B47" fill-rule="nonzero" d="M23.2022568,0.536021052 C23.2022568,0.536021052 29.3405498,5.24399999 29.2395198,18.2581263 C29.2294168,19.6294105 27.9030375,20.739221 26.2692383,20.7435789 L26.1869711,20.7435789 C24.5387391,20.7435789 23.2022568,19.6265052 23.2022568,18.2450526 L23.2022568,0.536021052 Z"/><path fill="#F76D6D" fill-rule="nonzero" d="M28.4500426 53.7313894 31.5054779 72.1507578C31.8575232 74.2469731 33.661001 75.7815998 35.773273 75.7823367 37.885545 75.7815998 39.6890228 74.2469731 40.041068 72.1507578L43.1022765 53.7313894M61.2689103 53.7313894 64.3272322 72.1507578C64.6794593 74.2480559 66.4845507 75.7830174 68.5979138 75.7823369L68.8172932 75.7823369C70.8327022 75.781609 72.5811063 74.3814163 73.0345732 72.4049683L78.1596799 50.1317683"/><ellipse cx="22.58" cy="25.786" fill="#1D2B47" fill-rule="nonzero" rx="2.191" ry="2.205"/></g><circle cx="23.5" cy="67.15" r="1.5" fill="#F76D6D" fill-rule="nonzero"/><line x1="89.031" x2="88.969" y1="79.65" y2="80.65" fill="#F76D6D" fill-rule="nonzero" stroke="#1D2B47" stroke-width="1.61"/><path fill="#1D2B47" fill-rule="nonzero" stroke="#1D2B47" stroke-width="1.61" d="M69,60.2397308 C67.3019654,59.8473904 65.5558209,59.6493524 63.8028232,59.6502923 L42,59.6502923 L42,60.1508954 C42,61.5312742 43.2421828,62.6502923 44.7744929,62.6502923 L66.229505,62.6502923 C67.7228459,62.6498274 68.9476147,61.5841764 69,60.2397308 L69,60.2397308 Z"/><g fill="#FC9797" fill-rule="nonzero" transform="translate(79 82.65)"><circle cx="2.466" cy=".97" r="1"/><circle cx=".534" cy="7.03" r="1"/><circle cx=".8" cy="2.909" r="1"/><circle cx="2.466" cy="5.089" r="1"/></g><path fill="#1D2B47" fill-rule="nonzero" stroke="#1D2B47" stroke-width="1.61" d="M49.1757246,35.6502923 L45.1932726,37.5515818 C39.9712396,40.047472 38.4307026,47.2786763 41.7516474,53.7017967 C41.9185141,54.0270362 42.0958099,54.3422462 42.2820451,54.6502923 L59,54.6502923 L49.1757246,35.6502923 Z"/><path fill="#FCB332" fill-rule="nonzero" stroke="#1D2B47" stroke-width="1.61" d="M67.124542,47.4600868 C63.568574,41.1559124 56.1535272,38.0382782 50.561931,40.4837297 C44.9703348,42.9291812 43.3191787,50.0320999 46.8751467,56.3362743 C47.4325452,57.3274291 48.104547,58.2652069 48.8804638,59.1346921 C50.1264011,60.5473245 51.6635235,61.7400536 53.4111723,62.6502923 L64.6868932,62.6502923 C66.051685,61.7667811 67.133387,60.5865378 67.8264828,59.2246915 C69.5462376,55.9579957 69.4281839,51.5424018 67.124542,47.4600868 L67.124542,47.4600868 Z"/><g fill="#FFF" fill-rule="nonzero" transform="translate(51 41.65)"><path d="M2.03423386,1.6851768 C3.84657895,0.654859238 6.04444626,1.50077519 6.94721773,3.57608778 L7.12216468,3.97869801 C7.28598371,4.35595283 7.15200431,4.81401591 6.82291332,5.00181053 C6.49382234,5.18960515 6.09423983,5.03601731 5.9304208,4.65876249 L5.75547386,4.25615225 C5.18227081,2.93299703 3.78192796,2.39301958 2.62767673,3.05006198 C1.47342551,3.70710438 1.00233229,5.31237232 1.57544584,6.63557849 C2.14855939,7.95878466 3.54886572,8.49888656 4.70316138,7.84194675 C6.51532807,6.80921883 8.71469154,7.65588283 9.61582945,9.73312085 C10.5169674,11.8103589 9.77870897,14.3317287 7.96679846,15.3650471 C6.15488796,16.3983656 3.95531461,15.5524184 3.05366157,13.4754742 L2.87871462,13.072864 C2.77274228,12.8285535 2.78851772,12.5379916 2.92009846,12.31063 C3.05167921,12.0832684 3.27907503,11.9536489 3.51662811,11.9705978 C3.7541812,11.9875466 3.96580157,12.148489 4.07177389,12.3927995 L4.24540545,12.7954097 C4.81860849,14.1185649 6.21895135,14.6585424 7.37320257,14.0015 C8.5274538,13.3444576 8.99854702,11.7391897 8.42543347,10.4159835 C7.85231992,9.09277731 6.45201359,8.55267541 5.29771793,9.20961522 C3.48517486,10.2426938 1.2852626,9.39576658 0.384076358,7.31795029 C-0.517109883,5.240134 0.221690796,2.71825541 2.03423386,1.6851768 L2.03423386,1.6851768 Z"/><path d="M7.40497366 13.9836377C7.56264961 13.8912149 7.7461761 13.8755903 7.91403179 13.9402986 8.08188749 14.0050069 8.21988678 14.1445796 8.29680849 14.3274397L8.99265011 15.9167699C9.14380428 16.2917135 9.00724159 16.7364646 8.6845415 16.920204 8.36184141 17.1039434 7.97018858 16.9599482 7.80090623 16.5953265L7.11164156 15.0075041C7.03197246 14.8271652 7.01812313 14.6179129 7.07314548 14.4258591 7.12816783 14.2338054 7.24754615 14.074712 7.40497366 13.9836377L7.40497366 13.9836377ZM1.37390778.0792595874C1.70344326-.107167104 2.10245401.0464248548 2.267058.423061583L2.95632267 2.01239186C3.06206002 2.25777975 3.04556604 2.54919358 2.91305384 2.77686059 2.78054163 3.0045276 2.55214297 3.13385975 2.31389342 3.11613887 2.07564386 3.098418 1.86373919 2.93633632 1.75800184 2.69094843L1.06873716 1.10161815C.907742848.722625545 1.04412238.265737579 1.37390778.0792595874L1.37390778.0792595874Z"/></g><g fill-rule="nonzero" stroke="#1D2B47" stroke-width="1.61" transform="translate(42.001)"><path fill="#1D2B47" d="M13.8084313,27.047646 C19.1579298,27.6512912 24.1032256,22.4239507 24.851138,15.3715046 C25.5990504,8.31905847 21.8704871,2.11398283 16.5209886,1.51033765 L12.4418413,1.04981023 L9.72928402,26.5927866 L13.8084313,27.047646 Z"/><ellipse cx="11.088" cy="13.826" fill="#FCB332" rx="12.841" ry="9.748" transform="rotate(-83.75 11.088 13.826)"/></g><g fill="#FFF" fill-rule="nonzero" transform="translate(51 4.65)"><path d="M3.68262185,17.209846 C1.41552772,16.9510161 -0.220876281,14.8477728 0.0243223353,12.5078935 L0.0732578376,12.0488679 C0.118711213,11.6238113 0.489507328,11.3172548 0.90145414,11.3641546 C1.31340095,11.4110545 1.61050258,11.7936508 1.56504921,12.2187074 L1.5175966,12.677733 C1.40212295,13.7691161 1.93518015,14.8248069 2.86820182,15.3525333 C3.8012235,15.8802597 4.95046461,15.7760935 5.78003015,15.0886079 C6.6095957,14.4011223 6.9561148,13.2657075 6.65800445,12.2118113 C6.35989409,11.1579151 5.47586278,10.3930869 4.41813728,10.2739688 C2.15007601,10.0174418 0.512976689,7.91236889 0.761548268,5.57212423 C1.01011985,3.23187956 3.050236,1.54264105 5.3183068,1.79907826 C7.5863776,2.05551548 9.22355516,4.16052362 8.97507056,6.50077811 L8.92761795,6.95980374 C8.89847967,7.23504044 8.72924655,7.47332985 8.48366707,7.58491064 C8.2380876,7.69649144 7.95347113,7.66441185 7.73702994,7.50075594 C7.52058875,7.33710004 7.4052054,7.06673105 7.43434369,6.79149435 L7.48327919,6.33246872 C7.64167222,4.84233189 6.59936357,3.50183764 5.15519106,3.33835682 C3.71101855,3.17487599 2.41183533,4.25031255 2.25335098,5.74043905 C2.09486663,7.23056554 3.13709313,8.57112779 4.58125562,8.73470284 C6.81566608,9.03016545 8.40918326,11.1175628 8.16423161,13.4281538 C7.91927997,15.7387447 5.92609828,17.4213208 3.68262185,17.2113761 L3.68262185,17.209846 Z"/><path d="M5.11806325 3.3319712C4.92007681 3.31004251 4.73870679 3.20765541 4.61404384 3.0474419 4.4893809 2.88722839 4.43169122 2.6823823 4.45372673 2.47818353L4.64353717.687983579C4.68964113.263896461 5.05962986-.0417323627 5.47076439.00465334903 5.88189892.0510390607 6.17913435.431946572 6.13532854.856292976L5.9455181 2.64649293C5.92426575 2.85078006 5.82503651 3.03792197 5.66976436 3.16655218 5.5144922 3.29518238 5.31596405 3.35470797 5.11806325 3.3319712L5.11806325 3.3319712ZM3.45573907 18.9954557C3.04357482 18.9481954 2.74633192 18.5655021 2.79140255 18.140138L2.98121298 16.3468778C3.01035127 16.0716411 3.17958439 15.8333517 3.42516386 15.7217709 3.67074334 15.6101901 3.95535981 15.6422697 4.171801 15.8059256 4.38824219 15.9695815 4.50362553 16.2399505 4.47448725 16.5151872L4.28467682 18.3053872C4.26377277 18.510465 4.16459668 18.6985165 4.00905789 18.8279984 3.85351909 18.9574803 3.65441811 19.0177365 3.45573907 18.9954557L3.45573907 18.9954557Z"/></g><g stroke="#1D2B47" stroke-linecap="round" stroke-width="1.61" transform="translate(1 5.66)"><line x1="36.119" x2="36.119" y2="26.012" fill="#1D2B47" fill-rule="nonzero"/><line x1="39.886" x2="39.886" y1="17.302" y2="28.366" fill="#1D2B47" fill-rule="nonzero"/><path d="M57.1082734 8.23941438C57.1082734 8.23941438 64.6430155 6.82719396 66.5870756 0M77.6446718 85.566523 80.4400128 85.566523C83.7954906 85.566523 86.5158764 88.2007557 86.5167099 91.4507747L87.7317474 91.4507747C91.087225 91.451582 93.8069351 94.0864693 93.8069351 97.3364884L93.8069351 98.2779687M91.37686 89.3324441 95.9940026 89.3324441 95.9940026 88.7476737C95.9940026 86.017049 98.2794399 83.8034403 101.09867 83.8034403 102.772578 83.8074666 104.127813 85.12207 104.129471 86.7433733L104.129471 88.1555937 106.073531 88.1555937C107.751565 88.1555937 109.11188 89.4731556 109.11188 91.0984506L109.11188 94.0413074 109.963161 94.0413074C111.640361 94.0413074 113 95.3582148 113 96.9827023M14.8219485 93.9228914C14.8219485 93.9228914 12.1473566 87.6848536 8.62450244 85.566523 7.16494804 89.4508601 10.2032966 93.9228914 10.2032966 93.9228914 10.2032966 93.9228914 5.58615393 91.0984506 2.54931478 91.9215149 2.54931478 93.9228914 6.92646862 96.9827023 6.92646862 96.9827023 6.92646862 96.9827023 1.58030348 96.7473323 0 98.2779687" transform="translate(0 16.713)"/></g></g></svg>