<svg viewBox="0 0 1000 1000" xmlns="http://www.w3.org/2000/svg"><g stroke="#1d2b47" stroke-miterlimit="10" stroke-width="1.61"><g fill="#1d2b47" stroke-linecap="round"><path d="m741.53 31.44 200.46-6.44"/><path d="m739.56 60.87 204.13-6.53"/><path d="m737.59 90.3 207.8-6.62"/><path d="m735.62 119.73 211.47-6.71"/><path d="m733.65 149.16 215.14-6.8"/><path d="m731.69 178.59 218.8-6.89"/><path d="m729.72 208.02 222.47-6.97"/><path d="m727.75 237.45 226.14-7.06"/><path d="m725.78 266.88 229.81-7.15"/><path d="m723.81 296.31 233.48-7.24"/></g><path d="m682.68 716.63h-3a21.13 21.13 0 0 1 -21.13-21.13v-8.74h-15.24a6.35 6.35 0 0 1 -6.4-5.78 6.2 6.2 0 0 1 6.18-6.61h16.29a21.17 21.17 0 0 1 20.33-15.37h11.29a27.1 27.1 0 0 0 24.69-15.93l2.92-6.45a6.19 6.19 0 0 1 8.56-2.91 6.33 6.33 0 0 1 2.64 8.21l-2.81 6.26a39.48 39.48 0 0 1 -36 23.22h-11.3a8.72 8.72 0 0 0 -5.8 2.21.44.44 0 0 0 .29.76h8.06c11.83 0 21.75 9.68 21.55 21.5a21.15 21.15 0 0 1 -21.12 20.76zm-11.68-29.87v8.74a8.75 8.75 0 0 0 8.73 8.74h3a8.74 8.74 0 0 0 0-17.48z" fill="#f76d6d"/><path d="m675.31 672.64s-3.71 0-4.33 14.25" fill="none"/><path d="m156.72 580.39v-127.08c57 22.07 92.29 63.45 92.29 108.31v6.38c0 13.28 11.66 24 26.05 24" fill="#f76d6d"/><g fill="#1d2b47"><path d="m189 816.38 21.2 126.77a30 30 0 0 0 29.56 25 30 30 0 0 0 29.57-25l21.2-126.77"/><path d="m404.64 816.38 21.19 126.77a30 30 0 0 0 29.57 25 30 30 0 0 0 29.57-25l21.2-126.77"/><path d="m156.72 453.31s35.44 32.38 34.86 122a17.24 17.24 0 0 1 -17.16 17.11h-.42c-9.52 0-17.23 26.58-17.23 17.07z"/><path d="m646.19 674.37h-9.29v12.52h18.68s-9.39-1.89-9.39-12.52z"/></g><path d="m487 537.36h-207a155.66 155.66 0 0 0 -113.23 48.64 113.1 113.1 0 0 1 -82 35.31h-14.77v149.33h14.8a113.06 113.06 0 0 1 82 35.31 155.65 155.65 0 0 0 113.2 48.64h207a156.11 156.11 0 0 0 156.09-156.11v-5a156.11 156.11 0 0 0 -156.09-156.12z" fill="#f76d6d"/><path d="m487 537.36h-207a155.66 155.66 0 0 0 -113.23 48.64 113.1 113.1 0 0 1 -82 35.31h-14.77v149.33h14.8a113.06 113.06 0 0 1 82 35.31 155.65 155.65 0 0 0 113.2 48.64h207a156.11 156.11 0 0 0 156.09-156.11v-5a156.11 156.11 0 0 0 -156.09-156.12z" fill="#f76d6d"/><path d="m341.35 823.2c-27.88 25.4-54.6 6-66.27 31.31 1.64 0 3.27.08 4.92.08h111.11c-39.47-9.5-49.76-31.39-49.76-31.39z" fill="#1d2b47"/><ellipse cx="69.69" cy="695.98" fill="#fc9797" rx="26.98" ry="74.66"/><ellipse cx="81.01" cy="694.43" fill="#1d2b47" rx="6.23" ry="17.25"/><ellipse cx="56.14" cy="691.33" fill="#1d2b47" rx="6.23" ry="17.25"/><path d="m203.47 584.1v-127.1c63.16 22.07 102.22 63.46 102.22 108.32v6.4c0 13.28 12.91 24 28.85 24" fill="#f76d6d"/><path d="m203.47 457s42.53 32.41 41.83 122c-.07 9.44-9.26 17.08-20.58 17.11h-.57c-11.42 0-20.68-7.69-20.68-17.2z" fill="#1d2b47"/><path d="m239.83 823.2 21.17 126.8a30 30 0 0 0 29.57 25 30 30 0 0 0 29.57-25l21.21-126.8" fill="#f76d6d"/><path d="m467.22 823.2 21.19 126.8a30 30 0 0 0 29.59 25h1.52a30 30 0 0 0 29.22-23.25l35.51-153.33" fill="#f76d6d"/><circle cx="199.16" cy="630.82" fill="#1d2b47" r="15.18"/></g><circle cx="207.21" cy="618.43" fill="#f76d6d" r="8.98"/><path d="m659.2 674.5-.62 13.63" fill="#f76d6d" stroke="#1d2b47" stroke-miterlimit="10" stroke-width="1.61"/><path d="m526 542.27a156.6 156.6 0 0 0 -39-4.91h-163.61v4.17a20.82 20.82 0 0 0 20.82 20.82h161a20.81 20.81 0 0 0 20.79-20.08z" fill="#1d2b47" stroke="#1d2b47" stroke-miterlimit="10" stroke-width="1.61"/><g fill="#fc9797"><circle cx="607.16" cy="723.45" r="4.96"/><circle cx="589.19" cy="754.43" r="4.96"/><circle cx="591.67" cy="733.36" r="4.96"/><circle cx="607.16" cy="744.51" r="4.96"/></g><path d="m393.11 404.73-26.73 13.27c-35.05 17.42-45.39 67.89-23.1 112.72 1.12 2.27 2.31 4.47 3.56 6.62h112.21z" fill="#1d2b47" stroke="#1d2b47" stroke-miterlimit="10" stroke-width="1.61"/><path d="m496.93 454.34c-22.29-44.83-68.77-67-103.82-49.61s-45.4 67.9-23.11 112.73a114.29 114.29 0 0 0 12.57 19.9 101.15 101.15 0 0 0 28.4 25h70.68a61.41 61.41 0 0 0 19.68-24.36c10.78-23.23 10.04-54.63-4.4-83.66z" fill="#fcb332" stroke="#1d2b47" stroke-miterlimit="10" stroke-width="1.61"/><g fill="#fff"><path d="m415.1 438.33a27.89 27.89 0 0 1 37.35 12.54l1.33 2.67a5.06 5.06 0 1 1 -9.06 4.51l-1.33-2.67a17.74 17.74 0 1 0 -8 23.78 27.86 27.86 0 1 1 -12.54 37.36l-1.33-2.67a5.06 5.06 0 1 1 9.07-4.51l1.32 2.67a17.74 17.74 0 1 0 8-23.78 27.86 27.86 0 0 1 -24.81-49.9z"/><path d="m455.93 519.89a5 5 0 0 1 6.78 2.28l5.29 10.54a5.06 5.06 0 0 1 -9.06 4.5l-5.24-10.53a5.05 5.05 0 0 1 2.23-6.79z"/><path d="m410.08 427.68a5.08 5.08 0 0 1 6.79 2.28l5.24 10.54a5.06 5.06 0 1 1 -9.11 4.5l-5.24-10.54a5.08 5.08 0 0 1 2.32-6.78z"/></g><path d="m517.54 109.94-60.67 128.2a13.17 13.17 0 0 1 -17.31 6.54 13.17 13.17 0 0 1 -7.2-16.08l44.64-130.82" fill="#fc9797"/><path d="m517.54 109.94-60.67 128.2a13.17 13.17 0 0 1 -17.31 6.54 13.17 13.17 0 0 1 -7.2-16.08l44.64-130.82" fill="none" stroke="#1d2b47" stroke-linecap="round" stroke-miterlimit="10" stroke-width="1.61"/><path d="m496.39 103.4-60.71 130.86a13.18 13.18 0 0 1 -17.32 6.54 13.18 13.18 0 0 1 -7.2-16.08l36.84-114.38" fill="#fc9797"/><path d="m496.39 103.4-15.1 32.53-45.61 98.33a13.18 13.18 0 0 1 -17.32 6.54 13.18 13.18 0 0 1 -7.2-16.08l36.84-114.38" fill="none" stroke="#1d2b47" stroke-linecap="round" stroke-miterlimit="10" stroke-width="1.61"/><path d="m459.46 104.85-40.12 116.7a13.19 13.19 0 0 1 -16.58 8.23 13.16 13.16 0 0 1 -8.76-15.28l28.26-128.23z" fill="#fc9797"/><path d="m473.28 108.35c32.86-5.68 45.74 20.18 41.79 40.94a32.3 32.3 0 0 1 -23.35 25.14l-16.61 4.45 12.6 35 116.16-19.34 2.52-157.54-131.49-2.14a50.38 50.38 0 0 0 -50 39.56l-3.6 16.27" fill="#fc9797"/><path d="m453.57 122.2-34.23 99.35a13.19 13.19 0 0 1 -16.58 8.23 13.16 13.16 0 0 1 -8.76-15.28l27.3-123.81" fill="none" stroke="#1d2b47" stroke-linecap="round" stroke-miterlimit="10" stroke-width="1.61"/><path d="m476.9 103.78-77.44 96.08a13.19 13.19 0 0 1 -18.39 2.1 13.18 13.18 0 0 1 -3-17.36l71.93-116.48z" fill="#fc9797"/><g stroke="#1d2b47" stroke-miterlimit="10" stroke-width="1.61"><path d="m473.28 108.35c32.86-5.68 45.74 20.18 41.79 40.94a32.3 32.3 0 0 1 -23.35 25.14l-16.61 4.45 12.6 35 116.16-19.34 2.52-157.54-131.49-2.14a50.38 50.38 0 0 0 -50 39.56l-3.6 16.27" fill="none" stroke-linecap="round"/><path d="m473.28 108.35-73.82 91.51a13.19 13.19 0 0 1 -18.39 2.1 13.18 13.18 0 0 1 -3-17.36l63.51-107.39a41.08 41.08 0 0 1 36.02-20.21l36.35.59" fill="none" stroke-linecap="round"/><path d="m430.44 327c38.91 4.26 74.88-32.63 80.32-82.4s-21.68-93.56-60.59-97.82l-29.67-3.25-19.73 180.26z" fill="#1d2b47"/><ellipse cx="410.64" cy="233.68" fill="#fcb332" rx="90.65" ry="70.88" transform="matrix(.10886687 -.99405634 .99405634 .10886687 133.66 616.45)"/></g><g fill="#fff"><path d="m400.41 283.64a27.9 27.9 0 0 1 -24.67-30.73l.33-3a5.06 5.06 0 1 1 10.06 1.11l-.32 3a17.74 17.74 0 1 0 19.56-15.71 27.86 27.86 0 1 1 30.73-24.66l-.32 3a5.06 5.06 0 0 1 -10.07-1.1l.33-3a17.74 17.74 0 1 0 -19.57 15.7 27.87 27.87 0 0 1 -6.06 55.4z"/><path d="m410.09 192.94a5.05 5.05 0 0 1 -4.48-5.58l1.28-11.7a5.06 5.06 0 0 1 10.06 1.1l-1.28 11.7a5.05 5.05 0 0 1 -5.58 4.48z"/><path d="m398.88 295.31a5.07 5.07 0 0 1 -4.48-5.59l1.28-11.72a5.06 5.06 0 1 1 10.07 1.1l-1.28 11.7a5.07 5.07 0 0 1 -5.59 4.51z"/></g><path d="m605.63 84.78-90.56 64.51a32.28 32.28 0 0 1 -23.35 25.14l-16.6 4.45-35.12 9.36a24 24 0 0 0 -17.19 28.65l1.76 7.51 146.22-24.25v-.05l33.14-5.52z" fill="#fc9797"/><path d="m515.07 149.29a32.28 32.28 0 0 1 -23.35 25.14l-16.6 4.45-35.12 9.36a24 24 0 0 0 -17.19 28.65l1.76 7.51 146.22-24.25v-.05l33.14-5.52" fill="none" stroke="#1d2b47" stroke-linecap="round" stroke-miterlimit="10" stroke-width="1.61"/><path d="m767 193.47-104.67 1.26 9.08 57.73a51.79 51.79 0 0 0 59.22 43.11 51.78 51.78 0 0 0 43.11-59.21z" fill="#1d2b47" stroke="#1d2b47" stroke-linecap="round" stroke-miterlimit="10" stroke-width="1.61"/><path d="m767.29 193.26-25.77-161.82-141.81 5.26-26.07 80.99 20.26 77.85 68.36-.89.02.07 104.67-1.25-.04-.2z" fill="#fc9797"/><g stroke="#1d2b47" stroke-linecap="round" stroke-miterlimit="10" stroke-width="1.61"><path d="m593.9 195.54 68.36-.89.02.07 104.67-1.25-.04-.2.38-.01-25.77-161.82-141.81 5.26" fill="none"/><path d="m309.19 181.99v177.93" fill="#1d2b47"/><path d="m334.15 300.34v75.68" fill="#1d2b47"/><g fill="none"><path d="m448.47 352.67s49.92-9.66 62.8-56.36"/><path d="m584.53 881.61h18.52a40.26 40.26 0 0 1 40.26 40.25h8.05a40.26 40.26 0 0 1 40.25 40.26v6.44"/><path d="m675.51 907.37h30.59v-4a33.82 33.82 0 0 1 33.82-33.82 20.13 20.13 0 0 1 20.08 20.11v9.66h12.88a20.13 20.13 0 0 1 20.13 20.13v20.13h5.64a20.12 20.12 0 0 1 20.12 20.12"/><path d="m168.31 938.77s-17.72-42.67-41.06-57.16c-9.67 26.57 10.46 57.16 10.46 57.16s-30.59-19.32-50.71-13.69c0 13.69 29 34.62 29 34.62s-35.42-1.61-45.89 8.86"/></g></g></svg>