<svg xmlns="http://www.w3.org/2000/svg" width="29" height="34" viewBox="0 0 29 34"><path d="M11.4715026,34 L11.4715026,34 C5.1761658,34 0,28.8238342 0,22.5284974 L0,18.4715026 C0,12.1761658 5.1761658,7 11.4715026,7 L15.5284974,7 C21.8238342,7 27,12.1761658 27,18.4715026 L27,22.5284974 C27,28.8238342 21.8238342,34 15.5284974,34 L11.4715026,34 Z M11.4715026,8.39896373 C5.87564767,8.39896373 1.39896373,12.8756477 1.39896373,18.4715026 L1.39896373,22.5284974 C1.39896373,28.1243523 5.87564767,32.6010363 11.4715026,32.6010363 L15.5284974,32.6010363 C21.1243523,32.6010363 25.6010363,28.1243523 25.6010363,22.5284974 L25.6010363,18.4715026 C25.6010363,12.8756477 21.1243523,8.39896373 15.5284974,8.39896373 L11.4715026,8.39896373 Z"/><g transform="translate(4 11)"><path d="M9.42962963,10.5555556 C8.86666667,10.5555556 8.3037037,10.1333333 8.3037037,9.42962963 C8.3037037,8.86666667 8.72592593,8.3037037 9.42962963,8.3037037 C10.1333333,8.3037037 10.5555556,8.72592593 10.5555556,9.42962963 C10.5555556,10.1333333 9.99259259,10.5555556 9.42962963,10.5555556 Z M9.42962963,9.14814815 C9.28888889,9.14814815 9.14814815,9.28888889 9.14814815,9.42962963 C9.14814815,9.85185185 9.85185185,9.85185185 9.85185185,9.42962963 C9.85185185,9.28888889 9.71111111,9.14814815 9.42962963,9.14814815 Z"/><path d="M9.57037037,10.1333333 C9.42962963,10.1333333 9.14814815,10.1333333 9.00740741,9.99259259 C8.72592593,9.71111111 8.72592593,9.28888889 9.00740741,9.00740741 L12.1037037,5.91111111 C12.3851852,5.62962963 12.8074074,5.62962963 13.0888889,5.91111111 C13.3703704,6.19259259 13.3703704,6.61481481 13.0888889,6.8962963 L9.99259259,9.99259259 C9.99259259,10.1333333 9.85185185,10.1333333 9.57037037,10.1333333 Z"/><g transform="translate(8.726)"><rect width="1.407" height="1.689"/><rect width="1.407" height="1.689" y="17.311"/></g><g transform="translate(0 8.726)"><rect width="1.689" height="1.407" x="17.311"/><rect width="1.689" height="1.407"/></g></g><path d="M13 8C10.7777778 8 9 6.22222222 9 4 9 1.77777778 10.7777778 0 13 0 15.2222222 0 17 1.77777778 17 4 17 6.22222222 15.2222222 8 13 8ZM13 1.33333333C11.5185185 1.33333333 10.4814815 2.51851852 10.4814815 3.85185185 10.4814815 5.18518519 11.6666667 6.37037037 13 6.37037037 14.4814815 6.37037037 15.5185185 5.18518519 15.5185185 3.85185185 15.5185185 2.51851852 14.4814815 1.33333333 13 1.33333333ZM24.75 10C24.6136364 10 24.3409091 10 24.2045455 9.86046512 23.9318182 9.58139535 23.9318182 9.1627907 24.2045455 8.88372093L25.8409091 7.20930233C26.1136364 6.93023256 26.5227273 6.93023256 26.7954545 7.20930233 27.0681818 7.48837209 27.0681818 7.90697674 26.7954545 8.18604651L25.1590909 9.86046512C25.1590909 10 25.0227273 10 24.75 10Z"/><polygon points="23.811 6.728 29.102 6.728 29.102 8.118 23.811 8.118" transform="rotate(45.024 26.457 7.423)"/></svg>