<svg xmlns="http://www.w3.org/2000/svg" width="32" height="43" viewBox="0 0 32 43"><g fill="#FFF"><path d="M24.2592785,43 L5.73890796,43 C3.12552626,43 1,40.8825655 1,38.2791328 L1,11.9033424 C1,11.4046974 1.40624393,11 1.90679448,11 L28.0932055,11 C28.5937561,11 29,11.4046974 29,11.9033424 L29,38.2791328 C29,40.8807588 26.8726601,43 24.2592785,43 Z M2.81177537,12.8066847 L2.81177537,38.2791328 C2.81177537,39.8870822 4.12481378,41.1933153 5.73709437,41.1933153 L24.2592785,41.1933153 C25.8733726,41.1933153 27.1845974,39.8852755 27.1845974,38.2791328 L27.1845974,12.8066847 L2.81177537,12.8066847 Z"/><path d="M31.1019308,12 L0.898069151,12 C0.40233498,12 0,11.6185611 0,11.1485739 L0,4.85142614 C0,4.38143891 0.40233498,4 0.898069151,4 L31.1019308,4 C31.597665,4 32,4.38143891 32,4.85142614 L32,11.146871 C32,11.6185611 31.5994612,12 31.1019308,12 Z M1.7961383,10.2971477 L30.2038617,10.2971477 L30.2038617,5.70285228 L1.7961383,5.70285228 L1.7961383,10.2971477 Z"/><path d="M22.0795287,7 L8.92047128,7 C8.41237113,7 8,6.54760531 8,5.99019042 L8,1.00980958 C8,0.452394691 8.41237113,0 8.92047128,0 L22.0795287,0 C22.5876289,0 23,0.452394691 23,1.00980958 L23,5.99019042 C23,6.54962493 22.5894698,7 22.0795287,7 Z M9.84094256,4.98038084 L21.1590574,4.98038084 L21.1590574,2.01961916 L9.84094256,2.01961916 L9.84094256,4.98038084 L9.84094256,4.98038084 Z"/><path d="M.920471281 19C.412371134 19 0 18.604093 0 18.1162791L0 .88372093C0 .395906977.412371134 0 .920471281 0 1.42857143 0 1.84094256.395906977 1.84094256.88372093L1.84094256 18.1162791C1.84094256 18.604093 1.42857143 19 .920471281 19ZM7.5 19C6.99189985 19 6.57952872 18.604093 6.57952872 18.1162791L6.57952872.88372093C6.57952872.395906977 6.99189985 0 7.5 0 8.00810015 0 8.42047128.395906977 8.42047128.88372093L8.42047128 18.1162791C8.42047128 18.604093 8.00810015 19 7.5 19ZM14.0795287 19C13.5714286 19 13.1590574 18.604093 13.1590574 18.1162791L13.1590574.88372093C13.1590574.395906977 13.5714286 0 14.0795287 0 14.5876289 0 15 .395906977 15 .88372093L15 18.1162791C15 18.604093 14.5894698 19 14.0795287 19Z" transform="translate(8 17)"/></g></svg>