<svg xmlns="http://www.w3.org/2000/svg" width="30" height="30" viewBox="0 0 30 30"><g fill="#1D2B47"><path d="M15,30 C6.72413793,30 0,23.2758621 0,15 C0,6.72413793 6.72413793,0 15,0 C23.2758621,0 30,6.72413793 30,15 C30,23.2758621 23.2758621,30 15,30 Z M15,1.29310345 C7.37068966,1.29310345 1.29310345,7.37068966 1.29310345,15 C1.29310345,22.6293103 7.37068966,28.7068966 15,28.7068966 C22.6293103,28.7068966 28.7068966,22.5 28.7068966,15 C28.7068966,7.5 22.6293103,1.29310345 15,1.29310345 Z"/><g transform="translate(5.172 5.172)"><path d="M9.33760797,13.0611791 C7.56490889,13.0611791 6.04545253,11.6662959 6.04545253,9.76418242 C6.04545253,7.98887653 7.43828753,6.46718576 9.33760797,6.46718576 C11.110307,6.46718576 12.503142,7.86206897 12.503142,9.76418242 C12.6297634,11.5394883 11.110307,13.0611791 9.33760797,13.0611791 Z M9.33760797,7.7352614 C8.1980157,7.7352614 7.31166616,8.62291435 7.31166616,9.76418242 C7.31166616,10.9054505 8.1980157,11.7931034 9.33760797,11.7931034 C10.4772002,11.7931034 11.2369284,10.9054505 11.2369284,9.76418242 C11.3635498,8.62291435 10.4772002,7.7352614 9.33760797,7.7352614 Z"/><path d="M10.4772002,19.6551724 L8.1980157,19.6551724 C7.56490889,19.6551724 7.05842344,19.2747497 6.80518071,18.6407119 L6.55193799,17.3726363 C5.79220981,17.1190211 5.03248163,16.6117909 4.27275345,16.1045606 L3.00653983,16.4849833 C2.37343301,16.6117909 1.7403262,16.3581758 1.36046211,15.8509455 L0.220869842,13.8220245 C-0.158994246,13.3147942 -0.0323728835,12.5539488 0.474112568,12.0467186 L1.48708347,11.0322581 C1.36046211,10.1446051 1.36046211,9.25695217 1.48708347,8.49610679 L0.474112568,7.60845384 C0.0942484794,7.10122358 -0.0323728835,6.46718576 0.220869842,5.83314794 L1.36046211,3.80422692 C1.7403262,3.29699666 2.37343301,3.04338154 3.00653983,3.1701891 L4.27275345,3.55061179 C4.65261754,3.29699666 5.03248163,3.04338154 5.28572436,2.78976641 C5.66558845,2.53615128 6.04545253,2.40934372 6.42531662,2.28253615 L6.67855935,1.01446051 C6.80518071,0.380422692 7.43828753,0 8.07139434,0 L10.3505789,0 C10.9836857,0 11.6167925,0.507230256 11.7434139,1.14126808 L11.9966566,2.40934372 C12.7563848,2.66295884 13.5161129,3.1701891 14.2758411,3.67741935 L15.5420547,3.29699666 C16.1751616,3.1701891 16.8082684,3.42380423 17.1881325,3.93103448 L18.3277247,5.83314794 C18.7075888,6.3403782 18.5809675,7.10122358 18.074482,7.48164627 L17.1881325,8.49610679 C17.3147538,9.38375973 17.3147538,10.2714127 17.1881325,11.0322581 L18.2011034,11.919911 C18.7075888,12.3003337 18.7075888,13.0611791 18.4543461,13.6952169 L17.3147538,15.7241379 C17.0615111,16.2313682 16.3017829,16.4849833 15.6686761,16.3581758 L14.4024625,15.9777531 C14.0225984,16.2313682 13.6427343,16.4849833 13.3894916,16.7385984 C13.0096275,16.9922136 12.6297634,17.1190211 12.2498993,17.2458287 L11.9966566,18.5139043 C11.7434139,19.1479422 11.110307,19.6551724 10.4772002,19.6551724 Z M4.39937482,14.5828699 C4.52599618,14.5828699 4.65261754,14.5828699 4.77923891,14.7096774 C5.53896708,15.3437152 6.29869526,15.8509455 7.1850448,16.1045606 C7.43828753,16.2313682 7.56490889,16.3581758 7.56490889,16.6117909 L7.94477298,18.2602892 C7.94477298,18.2602892 7.94477298,18.3870968 8.07139434,18.3870968 L10.3505789,18.3870968 C10.3505789,18.3870968 10.4772002,18.3870968 10.4772002,18.2602892 L10.8570643,16.6117909 C10.8570643,16.3581758 11.110307,16.2313682 11.2369284,16.1045606 C11.6167925,15.9777531 11.9966566,15.8509455 12.503142,15.5973304 C12.8830061,15.3437152 13.2628702,15.0901001 13.6427343,14.836485 C13.7693557,14.7096774 14.0225984,14.5828699 14.2758411,14.7096774 L15.9219188,15.2169077 C15.9219188,15.2169077 16.0485402,15.2169077 16.0485402,15.2169077 L17.1881325,13.1879867 C17.1881325,13.1879867 17.1881325,13.0611791 17.1881325,13.0611791 L15.9219188,11.919911 C15.7952975,11.7931034 15.6686761,11.5394883 15.7952975,11.2858732 C15.9219188,10.3982202 15.9219188,9.38375973 15.7952975,8.49610679 C15.7952975,8.24249166 15.7952975,8.11568409 15.9219188,7.86206897 L17.1881325,6.72080089 C17.1881325,6.72080089 17.1881325,6.59399333 17.1881325,6.59399333 L15.9219188,4.5650723 L14.4024625,4.94549499 C14.1492198,4.94549499 14.0225984,4.94549499 13.7693557,4.81868743 C13.1362489,4.18464961 12.2498993,3.67741935 11.4901711,3.42380423 C11.2369284,3.29699666 11.110307,3.1701891 11.110307,2.91657397 L10.6038216,1.26807564 C10.6038216,1.14126808 10.4772002,1.14126808 10.4772002,1.14126808 L8.1980157,1.14126808 C8.07139434,1.14126808 8.07139434,1.14126808 8.07139434,1.26807564 L7.69153025,2.91657397 C7.69153025,3.1701891 7.43828753,3.29699666 7.31166616,3.42380423 C6.80518071,3.55061179 6.42531662,3.80422692 6.04545253,3.93103448 C5.66558845,4.18464961 5.28572436,4.43826474 4.90586027,4.81868743 C4.65261754,4.94549499 4.52599618,4.94549499 4.27275345,4.94549499 L2.62667574,4.43826474 C2.50005437,4.43826474 2.50005437,4.43826474 2.50005437,4.5650723 L1.36046211,6.46718576 C1.36046211,6.46718576 1.36046211,6.59399333 1.36046211,6.59399333 L2.62667574,7.7352614 C2.7532971,7.86206897 2.87991846,8.11568409 2.7532971,8.36929922 C2.50005437,9.25695217 2.50005437,10.1446051 2.7532971,11.1590656 C2.7532971,11.4126808 2.7532971,11.5394883 2.62667574,11.7931034 L1.36046211,12.9343715 C1.36046211,12.9343715 1.36046211,13.0611791 1.36046211,13.0611791 L2.50005437,15.0901001 C2.50005437,15.0901001 2.62667574,15.0901001 2.62667574,15.0901001 L4.27275345,14.5828699 C4.27275345,14.5828699 4.39937482,14.5828699 4.39937482,14.5828699 Z"/></g></g></svg>