<svg xmlns="http://www.w3.org/2000/svg" width="36" height="34" viewBox="0 0 36 34"><g fill="#FFF"><path d="M1.46645434,34 C1.08545112,34 0.710309485,33.861373 0.428953261,33.5952092 C-0.0106658386,33.1793283 -0.124966804,32.5444167 0.144666243,32.0148616 L5.83333739,20.8387545 C5.95056915,20.6114062 6.123486,20.4256461 6.33450316,20.2897916 C6.44587334,20.1594823 6.5631051,20.0319454 6.69206003,19.9154988 L26.0939163,1.558514 C28.289081,-0.518118167 32.1108364,-0.520890706 34.3001395,1.558514 C35.3962564,2.59544382 36,3.973396 36,5.43729692 C36,6.90119783 35.3933256,8.27915002 34.2972087,9.31885238 L14.88656,27.6813822 C14.7458819,27.8172367 14.5934806,27.9420009 14.4381486,28.0556751 C14.303332,28.2386627 14.1274844,28.3939249 13.919398,28.4854187 L2.10243663,33.8641456 C1.90021185,33.9528668 1.68333309,34 1.46645434,34 Z M8.28055038,22.4274197 L4.60533471,29.6471128 L12.2488454,26.1675756 C12.3103921,26.1065797 12.3719388,26.0511289 12.4422779,26.0039958 C12.5712328,25.918047 12.7001877,25.8265532 12.8144887,25.7184242 L32.2251373,7.35589433 C32.770265,6.84020196 33.069206,6.15815722 33.069206,5.43452438 C33.069206,4.71089154 32.770265,4.0288468 32.2280681,3.51592697 C31.1436743,2.49008731 29.2533122,2.49285985 28.1659876,3.51869951 L8.75533901,21.8840019 C8.63224566,22.0004486 8.53552946,22.1279854 8.43881325,22.2527497 C8.39192055,22.3137455 8.33916626,22.3719689 8.28055038,22.4274197 Z"/><path d="M14.0920339,28.3333333 C13.7193992,28.3333333 13.3467646,28.1921366 13.0614662,27.9126246 L6.97121874,21.8872683 C6.40353315,21.3253628 6.40353315,20.4119061 6.97121874,19.8500006 C7.53890433,19.288095 8.46175731,19.288095 9.0294429,19.8500006 L15.1196904,25.8753568 C15.6873759,26.4372624 15.6873759,27.350719 15.1196904,27.9126246 C14.8373032,28.1921366 14.4646685,28.3333333 14.0920339,28.3333333 Z"/></g></svg>