<svg xmlns="http://www.w3.org/2000/svg" width="27" height="26" viewBox="0 0 27 26"><path d="M23.0892467,26 L4.0205156,26 C1.83794999,26 0,24.24 0,22.15 L0,7.85 C0,5.76 1.83794999,4 4.0205156,4 L22.9743748,4 C25.1569405,4 26.9948904,5.76 26.9948904,7.85 L26.9948904,22.15 C27.1097623,24.35 25.2718123,26 23.0892467,26 Z M4.0205156,5.1 C2.41230936,5.1 1.14871874,6.31 1.14871874,7.85 L1.14871874,22.15 C1.14871874,23.69 2.41230936,24.9 4.0205156,24.9 L22.9743748,24.9 C24.5825811,24.9 25.8461717,23.69 25.8461717,22.15 L25.8461717,7.85 C25.8461717,6.31 24.5825811,5.1 22.9743748,5.1 L4.0205156,5.1 Z"/><rect width="25" height="1" x="1" y="10"/><g transform="translate(6 13)"><rect width="2.868" height="1.154"/><rect width="2.868" height="1.154" x="6.066"/><rect width="2.868" height="1.154" x="12.132"/><g transform="translate(0 3.923)"><rect width="2.868" height="1.154"/><rect width="2.868" height="1.154" x="6.066"/><rect width="2.868" height="1.154" x="12.132"/></g><g transform="translate(0 7.846)"><rect width="2.868" height="1.154"/><rect width="2.868" height="1.154" x="6.066"/><rect width="2.868" height="1.154" x="12.132"/></g></g><g transform="translate(4)"><rect width="1.183" height="1.7" y=".3"/><path d="M0.591575092,1.7 C0.236630037,1.7 0,1.5 0,1.2 L0,0.5 C0,0.2 0.236630037,0 0.591575092,0 C0.946520147,0 1.18315018,0.2 1.18315018,0.5 L1.18315018,1.2 C1.18315018,1.5 0.946520147,1.7 0.591575092,1.7 Z"/><g transform="translate(3.007)"><rect width="1.183" height="1.7" y=".3"/><path d="M0.591575092,1.7 C0.236630037,1.7 0,1.5 0,1.2 L0,0.5 C0,0.2 0.236630037,0 0.591575092,0 C0.946520147,0 1.18315018,0.2 1.18315018,0.5 L1.18315018,1.2 C1.18315018,1.5 0.828205128,1.7 0.591575092,1.7 Z"/></g><g transform="translate(5.902)"><rect width="1.183" height="1.7" y=".3"/><path d="M0.591575092,1.7 C0.236630037,1.7 0,1.5 0,1.2 L0,0.5 C0,0.2 0.236630037,0 0.591575092,0 C0.946520147,0 1.18315018,0.2 1.18315018,0.5 L1.18315018,1.2 C1.18315018,1.5 0.946520147,1.7 0.591575092,1.7 Z"/></g><g transform="translate(8.908)"><rect width="1.183" height="1.7" y=".3"/><path d="M0.591575092,1.7 C0.236630037,1.7 0,1.5 0,1.2 L0,0.5 C0,0.2 0.236630037,0 0.591575092,0 C0.946520147,0 1.18315018,0.2 1.18315018,0.5 L1.18315018,1.2 C1.18315018,1.5 0.946520147,1.7 0.591575092,1.7 Z"/></g><g transform="translate(11.915)"><rect width="1.183" height="1.7" y=".3"/><path d="M0.591575092,1.7 C0.236630037,1.7 0,1.5 0,1.2 L0,0.5 C0,0.2 0.236630037,0 0.591575092,0 C0.946520147,0 1.18315018,0.2 1.18315018,0.5 L1.18315018,1.2 C1.18315018,1.5 0.828205128,1.7 0.591575092,1.7 Z"/></g><g transform="translate(14.81)"><rect width="1.183" height="1.7" y=".3"/><path d="M0.591575092,1.7 C0.236630037,1.7 0,1.5 0,1.2 L0,0.5 C0,0.2 0.236630037,0 0.591575092,0 C0.946520147,0 1.18315018,0.2 1.18315018,0.5 L1.18315018,1.2 C1.18315018,1.5 0.946520147,1.7 0.591575092,1.7 Z"/></g><g transform="translate(17.817)"><rect width="1.183" height="1.7" y=".3"/><path d="M0.591575092,1.7 C0.236630037,1.7 0,1.5 0,1.2 L0,0.5 C0,0.2 0.236630037,0 0.591575092,0 C0.946520147,0 1.18315018,0.2 1.18315018,0.5 L1.18315018,1.2 C1.18315018,1.5 0.946520147,1.7 0.591575092,1.7 Z"/></g></g><g transform="translate(4 4)"><g transform="translate(17.817)"><rect width="1.183" height="1.7"/><path d="M0.591575092,2 C0.236630037,2 0,1.8 0,1.5 L0,0.8 C0,0.5 0.236630037,0.3 0.591575092,0.3 C0.946520147,0.3 1.18315018,0.5 1.18315018,0.8 L1.18315018,1.5 C1.18315018,1.8 0.946520147,2 0.591575092,2 Z"/></g><g transform="translate(14.81)"><rect width="1.183" height="1.7"/><path d="M0.591575092,2 C0.236630037,2 0,1.8 0,1.5 L0,0.8 C0,0.5 0.236630037,0.3 0.591575092,0.3 C0.946520147,0.3 1.18315018,0.5 1.18315018,0.8 L1.18315018,1.5 C1.18315018,1.8 0.946520147,2 0.591575092,2 Z"/></g><g transform="translate(11.915)"><rect width="1.183" height="1.7"/><path d="M0.591575092,2 C0.236630037,2 0,1.8 0,1.5 L0,0.8 C0,0.5 0.236630037,0.3 0.591575092,0.3 C0.946520147,0.3 1.18315018,0.5 1.18315018,0.8 L1.18315018,1.5 C1.18315018,1.8 0.828205128,2 0.591575092,2 Z"/></g><g transform="translate(8.908)"><rect width="1.183" height="1.7"/><path d="M0.591575092,2 C0.236630037,2 0,1.8 0,1.5 L0,0.8 C0,0.5 0.236630037,0.3 0.591575092,0.3 C0.946520147,0.3 1.18315018,0.5 1.18315018,0.8 L1.18315018,1.5 C1.18315018,1.8 0.946520147,2 0.591575092,2 Z"/></g><g transform="translate(5.902)"><rect width="1.183" height="1.7"/><path d="M0.591575092,2 C0.236630037,2 0,1.8 0,1.5 L0,0.8 C0,0.5 0.236630037,0.3 0.591575092,0.3 C0.946520147,0.3 1.18315018,0.5 1.18315018,0.8 L1.18315018,1.5 C1.18315018,1.8 0.946520147,2 0.591575092,2 Z"/></g><g transform="translate(3.007)"><rect width="1.183" height="1.7"/><path d="M0.591575092,2 C0.236630037,2 0,1.8 0,1.5 L0,0.8 C0,0.5 0.236630037,0.3 0.591575092,0.3 C0.946520147,0.3 1.18315018,0.5 1.18315018,0.8 L1.18315018,1.5 C1.18315018,1.8 0.828205128,2 0.591575092,2 Z"/></g><rect width="1.183" height="1.7"/><path d="M0.591575092,2 C0.236630037,2 0,1.8 0,1.5 L0,0.8 C0,0.5 0.236630037,0.3 0.591575092,0.3 C0.946520147,0.3 1.18315018,0.5 1.18315018,0.8 L1.18315018,1.5 C1.18315018,1.8 0.946520147,2 0.591575092,2 Z"/></g></svg>