<svg xmlns="http://www.w3.org/2000/svg" width="30" height="30" viewBox="0 0 30 30"><g fill="#1D2B47"><path d="M15,30 C6.72413793,30 0,23.2758621 0,15 C0,6.72413793 6.72413793,0 15,0 C23.2758621,0 30,6.72413793 30,15 C30,23.2758621 23.2758621,30 15,30 Z M15,1.29310345 C7.37068966,1.29310345 1.29310345,7.37068966 1.29310345,15 C1.29310345,22.6293103 7.5,28.7068966 15,28.7068966 C22.6293103,28.7068966 28.7068966,22.5 28.7068966,15 C28.7068966,7.37068966 22.6293103,1.29310345 15,1.29310345 Z"/><path d="M14.2333333,25 C14.2333333,25 14.1,25 14.1,25 C13.8333333,24.868414 13.5666667,24.6052421 13.5666667,24.3420702 L13.8333333,18.0259441 L8.63333333,18.0259441 C8.36666667,18.0259441 8.23333333,17.8943582 8.1,17.7627722 C7.96666667,17.4996003 7.96666667,17.3680143 8.1,17.1048424 L14.1,6.31479373 C14.2333333,6.05162181 14.6333333,5.92003585 14.9,6.05162181 C15.1666667,6.18320777 15.4333333,6.44637969 15.4333333,6.70955161 L15.1666667,13.0256777 L20.3666667,13.0256777 C20.6333333,13.0256777 20.7666667,13.1572636 20.9,13.2888496 C21.0333333,13.5520215 21.0333333,13.6836075 20.9,13.9467794 L14.9,24.7368281 C14.7666667,24.868414 14.5,25 14.2333333,25 Z M9.83333333,16.7100845 L14.6333333,16.7100845 C14.7666667,16.7100845 15.0333333,16.8416705 15.1666667,16.9732565 C15.3,17.1048424 15.3,17.2364284 15.3,17.4996003 L15.0333333,21.710351 L19.1666667,14.4731232 L14.3666667,14.4731232 C14.2333333,14.4731232 13.9666667,14.3415373 13.8333333,14.2099513 C13.7,14.0783653 13.7,13.9467794 13.7,13.6836075 L13.9666667,9.47285676 L9.83333333,16.7100845 Z"/></g></svg>