<svg xmlns="http://www.w3.org/2000/svg" width="30" height="30" viewBox="0 0 30 30"><g fill="none" fill-rule="evenodd"><path fill="#1D2B47" fill-rule="nonzero" d="M15.625 12.875C15.375 12.875 15.125 12.625 15.125 12.375L15.125 8.125C15.125 7.875 15.375 7.5 15.625 7.5 16 7.5 16.25 7.75 16.25 8.125L16.25 12.375C16.125 12.625 15.875 12.875 15.625 12.875ZM15.625 13.875C15.125 13.875 14.75 14.375 14.75 14.875 14.75 15.375 15.125 15.75 15.625 15.75 16.125 15.75 16.625 15.375 16.625 14.875 16.5 14.375 16.125 13.875 15.625 13.875Z"/><path fill="#1D2B47" fill-rule="nonzero" d="M.625 10.5C.25 10.5 0 10.25 0 10 0 4.5 4.5 0 9.875 0 10.25 0 10.5.25 10.5.625 10.5.875 10.25 1.25 9.875 1.25 5 1.25 1.125 5.25 1.125 10.125 1.125 10.25.875 10.5.625 10.5ZM10 19.875C9.75 19.875 9.5 19.625 9.5 19.25 9.5 19 9.75 18.625 10 18.625 14.875 18.625 18.875 14.625 18.875 9.875 18.875 9.5 19.125 9.25 19.5 9.25 19.875 9.25 20.125 9.5 20.125 9.875 19.875 15.5 15.5 19.875 10 19.875Z" transform="translate(5.625 4.875)"/><g fill="#1D2B47" fill-rule="nonzero" transform="translate(5.625 4.75)"><path d="M10 10.5C9.875 10.5 9.625 10.5 9.5 10.5 9.125 10.5 9 10.25 9 9.875 9 9.625 9.25 9.375 9.625 9.375 9.75 9.375 10 9.375 10.125 9.375 10.5 9.375 10.75 9.625 10.75 10 10.5 10.25 10.25 10.5 10 10.5ZM7 10C6.875 10 6.875 10 6.875 10 6.375 9.875 6 9.75 5.625 9.5 5.375 9.375 5.25 9 5.375 8.75 5.5 8.5 5.875 8.375 6.125 8.5 6.5 8.75 6.875 8.75 7.25 8.875 7.5 9 7.75 9.25 7.625 9.625 7.375 9.875 7.25 10 7 10ZM3.875 8.25C3.75 8.25 3.625 8.25 3.5 8.125 3.25 7.875 2.875 7.5 2.625 7.25 2.5 7 2.5 6.625 2.625 6.375 2.875 6.25 3.25 6.25 3.375 6.375 3.625 6.75 3.875 7 4.25 7.25 4.5 7.375 4.5 7.75 4.25 8 4.125 8.125 3.875 8.25 3.875 8.25ZM1.5 5.25C1.25 5.25 1.125 5.125 1 5 .75 4.625.625 4.25.5 3.75.375 3.5.625 3.125.875 3.125 1.25 3 1.5 3.25 1.625 3.5 1.75 3.75 1.875 4.125 2 4.5 2.125 4.75 2 5.125 1.75 5.25 1.75 5.25 1.625 5.25 1.5 5.25ZM.625 1.625C.25 1.625.125 1.375 0 1.125 0 1 0 .75 0 .625 0 .25.25 0 .625 0 .875 0 1.25.25 1.25.625 1.25.75 1.25 1 1.25 1.125 1.25 1.375.875 1.625.625 1.625.625 1.625.625 1.625.625 1.625Z" transform="translate(0 9.5)"/><path d="M1.125 1.25C1.125 1.25 1.125 1.25 1.125 1.25 1 1.25.75 1.25.5 1.25.25 1.25 0 1 0 .625 0 .375.25 0 .5 0 .75 0 1 0 1.125 0 1.5 0 1.625.375 1.625.625 1.75 1 1.5 1.25 1.125 1.25ZM9.5 7.625C9.25 7.625 9 7.5 9 7.25 8.875 6.875 8.75 6.5 8.5 6.125 8.375 5.875 8.5 5.5 8.75 5.375 9 5.25 9.375 5.375 9.5 5.625 9.625 6 9.875 6.5 10 6.875 10.125 7.125 9.875 7.5 9.625 7.625 9.625 7.625 9.625 7.625 9.5 7.625ZM7.625 4.5C7.5 4.5 7.25 4.375 7.125 4.25 6.875 4 6.625 3.625 6.375 3.5 6.125 3.25 6.125 2.875 6.375 2.625 6.625 2.375 7 2.375 7.25 2.625 7.5 3 7.875 3.25 8.125 3.625 8.25 3.875 8.25 4.125 8.125 4.375 7.875 4.375 7.75 4.5 7.625 4.5ZM4.75 2.25C4.625 2.25 4.625 2.25 4.5 2.125 4.125 2 3.75 1.875 3.375 1.75 3.125 1.625 2.875 1.375 3 1 3 .75 3.375.5 3.625.625 4 .75 4.5 1 4.875 1.125 5.125 1.25 5.25 1.625 5.125 1.875 5.125 2.125 5 2.25 4.75 2.25ZM10 10.625C9.75 10.625 9.375 10.375 9.375 10.125 9.375 9.875 9.375 9.75 9.375 9.625 9.375 9.25 9.625 9 9.875 9 10.25 9 10.5 9.125 10.5 9.5 10.5 9.625 10.5 9.875 10.5 10.125 10.5 10.375 10.25 10.625 10 10.625Z" transform="translate(9.375)"/></g><path fill="#1D2B47" fill-rule="nonzero" d="M13.125,15.375 L11.125,15.375 C10.875,15.375 10.5,15.125 10.5,14.875 C10.5,14.5 10.75,14.25 11.125,14.25 L13.125,14.25 C13.5,14.25 13.75,14.5 13.75,14.875 C13.625,15.125 13.375,15.375 13.125,15.375 Z"/><path fill="#1D2B47" fill-rule="nonzero" d="M15.4375969,28 C7.95926247,28 2.00194522,21.915493 2.00194522,14.5633803 C1.87519379,7.08450704 7.95926247,1 15.4375969,1 C22.9159313,1 29,7.08450704 29,14.5633803 C28.8732486,21.915493 22.9159313,28 15.4375969,28 Z M15.4375969,2.14084507 C8.59301963,2.14084507 3.01595667,7.71830986 3.01595667,14.5633803 C3.01595667,21.4084507 8.59301963,26.9859155 15.4375969,26.9859155 C22.2821742,26.9859155 27.8592371,21.4084507 27.8592371,14.5633803 C27.7324857,7.71830986 22.2821742,2.14084507 15.4375969,2.14084507 Z"/></g></svg>