<svg xmlns="http://www.w3.org/2000/svg" width="24" height="24" viewBox="0 0 24 24"><g fill="#1D2B47"><path d="M21.2885438,23.4 L2.68854382,23.4 C1.78854382,23.4 0.88854382,22.9 0.38854382,22.1 C-0.11145618,21.3 -0.11145618,20.3 0.28854382,19.5 L9.58854382,1.5 C10.0885438,0.6 10.9885438,0 11.9885438,0 C12.9885438,0 13.8885438,0.6 14.3885438,1.4 L23.6885438,19.4 C24.0885438,20.2 24.0885438,21.2 23.5885438,22 C23.0885438,22.9 22.1885438,23.4 21.2885438,23.4 Z M11.9885438,1 C11.3885438,1 10.7885438,1.3 10.4885438,1.9 L1.18854382,19.9 C0.98854382,20.5 0.98854382,21.1 1.28854382,21.6 C1.58854382,22.1 2.08854382,22.4 2.68854382,22.4 L21.2885438,22.4 C21.8885438,22.4 22.3885438,22.1 22.6885438,21.6 C22.9885438,21.1 22.9885438,20.5 22.7885438,20 L13.4885438,2 C13.1885438,1.4 12.5885438,1 11.9885438,1 Z"/><g transform="translate(10.889 7.9)"><g transform="translate(.1)"><rect width="1.1" height="7.4" x=".4" y=".5"/><path d="M1.6,8.4 L0.5,8.4 C0.2,8.4 0,8.2 0,7.9 L0,0.5 C0,0.2 0.2,0 0.5,0 L1.6,0 C1.9,0 2.1,0.2 2.1,0.5 L2.1,7.9 C2.1,8.2 1.8,8.4 1.6,8.4 Z M0.9,7.4 L1,7.4 L1,1 L0.9,1 L0.9,7.4 Z"/></g><g transform="translate(0 10)"><rect width="1.1" height="1" x=".5" y=".5"/><rect width="2.1" height="2"/></g></g></g></svg>