<svg xmlns="http://www.w3.org/2000/svg" width="30" height="30" viewBox="0 0 30 30"><g fill="#1D2B47"><path d="M15.0697674,29.8611111 C14.6511628,29.8611111 14.372093,29.5833333 14.372093,29.1666667 L14.372093,22.2222222 L15.627907,22.2222222 L15.627907,28.4722222 C22.8837209,28.1944444 28.744186,22.0833333 28.744186,14.8611111 C28.744186,7.22222222 22.6046512,1.11111111 14.9302326,1.11111111 C7.39534884,1.25 1.25581395,7.36111111 1.25581395,15 L0,15 C0,6.66666667 6.69767442,0 15.0697674,0 C23.4418605,0 30,6.66666667 30,15 C30,23.0555556 23.4418605,29.7222222 15.3488372,30 L15.0697674,29.8611111 Z"/><path d="M16.744186,17.9166667 L13.3953488,17.9166667 C12.1395349,17.9166667 11.0232558,16.9444444 11.0232558,15.5555556 L11.0232558,11.6666667 C11.0232558,11.3888889 11.3023256,11.1111111 11.7209302,11.1111111 L18.5581395,11.1111111 C18.9767442,11.1111111 19.255814,11.3888889 19.255814,11.6666667 L19.255814,15.6944444 C19.1162791,16.9444444 18,17.9166667 16.744186,17.9166667 Z M12.2790698,12.2222222 L12.2790698,15.5555556 C12.2790698,16.1111111 12.6976744,16.6666667 13.3953488,16.6666667 L16.744186,16.6666667 C17.3023256,16.6666667 17.8604651,16.25 17.8604651,15.5555556 L17.8604651,12.2222222 L12.2790698,12.2222222 Z"/><path d="M17.5813953,12.2222222 L12.4186047,12.2222222 C12,12.2222222 11.7209302,11.9444444 11.7209302,11.5277778 L11.7209302,8.61111111 C11.8604651,7.5 12.6976744,6.66666667 13.8139535,6.66666667 L16.3255814,6.66666667 C17.4418605,6.66666667 18.2790698,7.5 18.2790698,8.61111111 L18.2790698,11.6666667 C18.2790698,11.9444444 18,12.2222222 17.5813953,12.2222222 Z M13.1162791,10.9722222 L17.0232558,10.9722222 L17.0232558,8.61111111 C17.0232558,8.19444444 16.744186,7.91666667 16.3255814,7.91666667 L13.8139535,7.91666667 C13.5348837,7.91666667 13.1162791,8.19444444 13.1162791,8.61111111 L13.1162791,10.9722222 Z"/><rect width="1.256" height="2.778" x="14.372" y="18.611"/><rect width="1.395" height="1.25" x="14.233" y="8.889"/><path d="M6.47457627,30 L2.54237288,30 C2.27118644,30 2.13559322,29.86 2,29.72 C1.86440678,29.58 1.86440678,29.3 2,29.02 L4.30508475,25.24 L0.644067797,25.24 C0.372881356,25.24 0.237288136,25.1 0.101694915,24.96 C-0.0338983051,24.82 -0.0338983051,24.54 0.101694915,24.4 L4.98305085,16.28 C5.11864407,16.14 5.25423729,16 5.52542373,16 L9.45762712,16 C9.72881356,16 9.86440678,16.14 10,16.28 C10.1355932,16.42 10.1355932,16.7 10,16.98 L7.83050847,20.62 L11.3559322,20.62 C11.6271186,20.62 11.7627119,20.76 11.8983051,20.9 C12.0338983,21.04 12.0338983,21.32 11.8983051,21.46 L7.01694915,29.58 C6.88135593,29.86 6.61016949,30 6.47457627,30 Z M3.62711864,28.74 L6.06779661,28.74 L10.2711864,21.88 L6.74576271,21.88 C6.47457627,21.88 6.33898305,21.74 6.20338983,21.6 C6.06779661,21.46 6.06779661,21.18 6.20338983,21.04 L8.50847458,17.26 L5.93220339,17.26 L1.72881356,24.12 L5.38983051,24.12 C5.66101695,24.12 5.79661017,24.26 5.93220339,24.4 C6.06779661,24.54 6.06779661,24.82 5.93220339,24.96 L3.62711864,28.74 Z"/></g></svg>