<svg xmlns="http://www.w3.org/2000/svg" width="28" height="28" viewBox="0 0 28 28"><path d="M14.0274518,27.5128226 C10.3824392,27.5128226 7.10192793,26.0512905 4.55041913,23.6154036 C1.99891033,21.0577224 0.662405718,17.6474807 0.662405718,13.9936504 C0.662405718,10.3398201 2.12041075,7.05137275 4.55041913,4.49369152 C7.10192793,1.93601029 10.5039397,0.596272498 14.0274518,0.596272498 C17.550964,0.596272498 20.9529757,2.05780463 23.5044845,4.49369152 C26.0559933,7.05137275 27.5139983,10.4616144 27.5139983,13.9936504 C27.5139983,17.6474807 26.0559933,20.935928 23.5044845,23.4936093 C21.0744761,26.1730848 17.6724644,27.5128226 14.0274518,27.5128226 Z M14.0274518,1.81421594 C10.7469405,1.81421594 7.70943002,3.03215939 5.40092206,5.34625193 C3.0924141,7.66034448 1.87740991,10.8269974 1.87740991,13.9936504 C1.87740991,17.1603033 3.0924141,20.3269563 5.40092206,22.6410488 C7.70943002,24.9551414 10.7469405,26.2948792 14.0274518,26.2948792 C17.3079631,26.2948792 20.3454736,25.0769357 22.6539816,22.6410488 C24.9624895,20.3269563 26.2989941,17.2820977 26.2989941,13.9936504 C26.2989941,10.7052031 24.9624895,7.66034448 22.6539816,5.34625193 C20.466974,3.03215939 17.3079631,1.81421594 14.0274518,1.81421594 Z"/><path d="M1.02690697 28C1.02690697 28 1.02690697 28 1.02690697 28 .662405718 28 .41940488 27.8782057.297904461 27.7564113-.0665967966 27.3910283-.795599311 26.6602622 3.21391452 21.6666941 3.45691536 21.3013111 3.82141661 21.3013111 4.18591787 21.5448997 4.42891871 21.7884884 4.55041913 22.1538715 4.30741829 22.3974602 2.12041075 25.0769357 1.51290865 26.2948792 1.39140823 26.7820566 2.84941326 26.2948792 8.07393128 22.2756658 15.242456 15.2115938 22.4109807 8.02572751 26.2989941 2.7885707 26.7849958 1.32703856 26.2989941 1.44883291 25.0839899 2.05780463 22.4109807 4.25010283 22.1679799 4.49369152 21.8034786 4.37189718 21.5604778 4.12830849 21.317477 3.76292545 21.317477 3.39754242 21.5604778 3.27574808 26.6634954-.743465291 27.2709975-.134493569 27.7569992.352683809 27.8784996.474478153 28 .718066842 28 1.08344988 28 3.15395373 21.8034786 10.3398201 16.0929589 16.1859486 10.2609388 21.7884884 3.0924141 28 1.02690697 28ZM7.10192793 13.7500617C6.73742667 13.3846787 6.12992457 13.3846787 5.88692374 13.7500617 5.6439229 13.871856 5.52242248 14.1154447 5.52242248 14.3590334 5.52242248 14.6026221 5.6439229 14.8462108 5.76542332 14.9680051 6.00842416 15.0897995 6.12992457 15.2115938 6.37292541 15.2115938 6.61592625 15.2115938 6.85892709 15.0897995 6.98042751 14.9680051 7.34492876 14.6026221 7.34492876 13.9936504 7.10192793 13.7500617Z"/><path d="M12.8124476 11.5577635C12.4479464 11.3141748 11.9619447 11.1923805 11.5974434 11.5577635 11.2329422 11.9231465 11.2329422 12.4103239 11.5974434 12.7757069 11.7189438 12.8975013 11.9619447 13.0192956 12.2049455 13.0192956 12.4479464 13.0192956 12.6909472 12.8975013 12.8124476 12.7757069 13.1769489 12.5321183 13.1769489 11.9231465 12.8124476 11.5577635ZM15.242456 21.5448997C14.8779547 21.1795167 14.3919531 21.3013111 14.0274518 21.5448997 13.9059514 21.6666941 13.784451 21.9102828 13.784451 22.1538715 13.784451 22.3974602 13.9059514 22.6410488 14.0274518 22.7628432 14.1489522 22.8846375 14.3919531 23.0064319 14.6349539 23.0064319 14.8779547 23.0064319 15.1209556 22.8846375 15.242456 22.7628432 15.3639564 22.6410488 15.4854568 22.3974602 15.4854568 22.1538715 15.4854568 21.9102828 15.3639564 21.6666941 15.242456 21.5448997ZM18.2799665 6.32060669C17.9154652 5.95522365 17.3079631 5.95522365 16.9434619 6.32060669 16.5789606 6.68598972 16.5789606 7.1731671 16.9434619 7.53855013 17.0649623 7.78213882 17.3079631 7.90393316 17.550964 7.90393316 17.7939648 7.90393316 18.0369656 7.78213882 18.1584661 7.66034448 18.4014669 7.53855013 18.4014669 7.29496144 18.4014669 7.05137275 18.5229673 6.80778406 18.4014669 6.56419538 18.2799665 6.32060669ZM23.0184828 12.8975013C22.6539816 12.5321183 22.0464795 12.5321183 21.8034786 12.8975013 21.6819782 13.0192956 21.5604778 13.2628843 21.5604778 13.506473 21.5604778 13.7500617 21.6819782 13.9936504 21.8034786 14.1154447 21.924979 14.2372391 22.1679799 14.3590334 22.4109807 14.3590334 22.6539816 14.3590334 22.8969824 14.2372391 23.0184828 14.1154447 23.2614837 13.9936504 23.2614837 13.7500617 23.2614837 13.506473 23.2614837 13.2628843 23.2614837 13.0192956 23.0184828 12.8975013ZM7.46642918 8.39111054C7.34492876 8.2693162 7.10192793 8.14752185 6.98042751 8.14752185 6.85892709 8.14752185 6.61592625 8.2693162 6.49442583 8.39111054 6.37292541 8.39111054 6.25142499 8.63469923 6.12992457 8.87828792 6.12992457 9.00008227 6.25142499 9.3654653 6.37292541 9.48725964 6.49442583 9.48725964 6.73742667 9.60905399 6.98042751 9.60905399 7.10192793 9.60905399 7.46642918 9.48725964 7.5879296 9.3654653 7.83093044 9.12187661 7.70943002 8.63469923 7.46642918 8.39111054ZM13.0554485 7.29496144C12.6909472 6.92957841 12.2049455 6.92957841 11.8404443 7.29496144 11.5974434 7.66034448 11.5974434 8.14752185 11.8404443 8.51290489 11.9619447 8.63469923 12.2049455 8.75649358 12.4479464 8.75649358 12.6909472 8.75649358 12.933948 8.63469923 13.0554485 8.51290489 13.1769489 8.39111054 13.2984493 8.14752185 13.2984493 7.90393316 13.2984493 7.66034448 13.2984493 7.41675579 13.0554485 7.29496144ZM19.7379715 19.5961902C19.3734702 19.5961902 18.8874686 19.4743959 18.6444677 19.1090129 18.4014669 18.8654242 18.1584661 18.3782468 18.1584661 18.0128638 18.1584661 17.6474807 18.2799665 17.1603033 18.6444677 16.9167147 19.2519698 16.3077429 20.2239732 16.3077429 20.8314753 16.9167147 21.4389774 17.5256864 21.4389774 18.5000411 20.8314753 19.1090129 20.5884744 19.3526015 20.2239732 19.5961902 19.7379715 19.5961902ZM19.7379715 17.6474807C19.7379715 17.6474807 19.6164711 17.6474807 19.4949707 17.7692751 19.3734702 17.8910694 19.3734702 17.8910694 19.3734702 18.0128638 19.3734702 18.1346581 19.3734702 18.1346581 19.4949707 18.2564524 19.6164711 18.3782468 19.7379715 18.5000411 19.9809723 18.2564524 20.1024728 18.1346581 20.1024728 17.8910694 19.9809723 17.7692751 19.8594719 17.6474807 19.8594719 17.6474807 19.7379715 17.6474807Z"/></svg>